<?xml version="1.0" encoding="utf-8"?>
<!-- Generator: Adobe Illustrator 24.2.0, SVG Export Plug-In . SVG Version: 6.00 Build 0)  -->
<svg version="1.1" xmlns="http://www.w3.org/2000/svg" xmlns:xlink="http://www.w3.org/1999/xlink" x="0px" y="0px"
	 viewBox="0 0 2475 1650" style="enable-background:new 0 0 2475 1650;" xml:space="preserve">
<style type="text/css">
	.st0{fill:url(#SVGID_1_);}
	.st1{fill:#BDD0FB;}
	.st2{fill:#DCE5FE;}
	.st3{fill:url(#SVGID_2_);}
	.st4{fill:url(#SVGID_3_);}
	.st5{fill:url(#SVGID_4_);}
	.st6{fill:url(#SVGID_5_);}
	.st7{fill:url(#SVGID_6_);}
	.st8{fill:url(#SVGID_7_);}
	.st9{fill:url(#SVGID_8_);}
	.st10{fill:url(#SVGID_9_);}
	.st11{fill:url(#SVGID_10_);}
	.st12{fill:url(#SVGID_11_);}
	.st13{fill:url(#SVGID_12_);}
	.st14{fill:url(#SVGID_13_);}
	.st15{fill:url(#SVGID_14_);}
	.st16{fill:url(#SVGID_15_);}
	.st17{fill:url(#SVGID_16_);}
	.st18{fill:url(#SVGID_17_);}
	.st19{fill:url(#SVGID_18_);}
	.st20{fill:url(#SVGID_19_);}
	.st21{fill:url(#SVGID_20_);}
	.st22{fill:url(#SVGID_21_);}
	.st23{fill:url(#SVGID_22_);}
	.st24{fill:url(#SVGID_23_);}
	.st25{fill:url(#SVGID_24_);}
	.st26{fill:url(#SVGID_25_);}
	.st27{fill:url(#SVGID_26_);}
	.st28{fill:url(#SVGID_27_);}
	.st29{fill:url(#SVGID_28_);}
	.st30{fill:#91B3FA;}
	.st31{fill:#7D97F4;}
	.st32{fill:url(#SVGID_29_);}
	.st33{fill:url(#SVGID_30_);}
	.st34{fill:url(#SVGID_31_);}
	.st35{fill:url(#SVGID_32_);}
	.st36{fill:url(#SVGID_33_);}
	.st37{fill:url(#SVGID_34_);}
	.st38{fill:url(#SVGID_35_);}
	.st39{opacity:0.6;fill:url(#SVGID_36_);}
	.st40{opacity:0.6;fill:url(#SVGID_37_);}
	.st41{opacity:0.6;fill:url(#SVGID_38_);}
	.st42{opacity:0.6;fill:url(#SVGID_39_);}
	.st43{opacity:0.6;fill:url(#SVGID_40_);}
	.st44{opacity:0.6;}
	.st45{fill:url(#SVGID_41_);}
	.st46{fill:url(#SVGID_42_);}
	.st47{fill:url(#SVGID_43_);}
	.st48{fill:url(#SVGID_44_);}
	.st49{fill:url(#SVGID_45_);}
	.st50{fill:url(#SVGID_46_);}
	.st51{fill:url(#SVGID_47_);}
	.st52{fill:url(#SVGID_48_);}
	.st53{fill:url(#SVGID_49_);}
	.st54{fill:url(#SVGID_50_);}
	.st55{fill:url(#SVGID_51_);}
	.st56{fill:url(#SVGID_52_);}
	.st57{fill:url(#SVGID_53_);}
	.st58{fill:url(#SVGID_54_);}
	.st59{fill:url(#SVGID_55_);}
	.st60{fill:url(#SVGID_56_);}
	.st61{fill:url(#SVGID_57_);}
	.st62{fill:url(#SVGID_58_);}
	.st63{fill:url(#SVGID_59_);}
	.st64{fill:url(#SVGID_60_);}
	.st65{fill:url(#SVGID_61_);}
	.st66{fill:url(#SVGID_62_);}
	.st67{fill:url(#SVGID_63_);}
	.st68{fill:url(#SVGID_64_);}
	.st69{fill:url(#SVGID_65_);}
	.st70{fill:url(#SVGID_66_);}
	.st71{fill:url(#SVGID_67_);}
	.st72{fill:url(#SVGID_68_);}
	.st73{fill:url(#SVGID_69_);}
	.st74{fill:url(#SVGID_70_);}
	.st75{fill:url(#SVGID_71_);}
	.st76{fill:url(#SVGID_72_);}
	.st77{fill:url(#SVGID_73_);}
	.st78{fill:url(#SVGID_74_);}
	.st79{fill:url(#SVGID_75_);}
	.st80{fill:url(#SVGID_76_);}
	.st81{fill:url(#SVGID_77_);}
	.st82{fill:url(#SVGID_78_);}
	.st83{fill:url(#SVGID_79_);}
	.st84{fill:url(#SVGID_80_);}
	.st85{fill:url(#SVGID_81_);}
	.st86{fill:url(#SVGID_82_);}
	.st87{fill:url(#SVGID_83_);}
	.st88{fill:url(#SVGID_84_);}
	.st89{fill:url(#SVGID_85_);}
	.st90{fill:url(#SVGID_86_);}
	.st91{opacity:0.42;fill:url(#SVGID_87_);}
	.st92{fill:url(#SVGID_88_);}
</style>
<g id="Background">
</g>
<g id="Illustration">
	<g>
		<linearGradient id="SVGID_1_" gradientUnits="userSpaceOnUse" x1="113.5901" y1="787.2093" x2="2378.2998" y2="787.2093">
			<stop  offset="0" style="stop-color:#DAE3FE"/>
			<stop  offset="1" style="stop-color:#E9EFFD"/>
		</linearGradient>
		<path class="st0" d="M2287.77,1046.84c-208.19-133.38-198.02-49.54-165.58-233.77c32.44-184.23,70.79-709.02-383.93-686.69
			c-454.72,22.33-476.17,274.23-837.44,107.31C539.56,66.76,87.6,503.94,330.01,775.22c233.91,261.77-558.24,275.53-32.3,632.22
			c38.96,26.42,84.25,41.29,131.05,41.29c0,0,1785.06-4.9,1787.16-4.9C2406.5,1443.32,2427.83,1136.58,2287.77,1046.84z"/>
		<g>
			<path class="st1" d="M2317.53,821.62c0.68-6.96-10.56-11.51-15.15-6.12c-44.34,52.11-166.34,185.03-294.03,231.97
				c-207.9,76.44-395.58,256.73-338.67,407.87C1669.69,1455.35,2243.56,1580.32,2317.53,821.62z"/>
			<path class="st2" d="M2269.45,901.67c-1.02,2.03-2.02,3.51-3.02,5.22l-3.08,4.92l-6.3,9.73c-4.25,6.45-8.6,12.83-12.98,19.2
				c-8.75,12.73-17.79,25.25-26.88,37.74c-18.34,24.86-37.41,49.18-57,73.08c-39.09,47.88-81.12,93.33-125.22,136.67
				c-22.11,21.63-45.11,42.32-68.59,62.45c-23.58,20.01-47.92,39.15-72.92,57.36c-25.17,17.99-51.15,34.84-77.78,50.59
				c-13.55,7.48-26.95,15.2-40.88,21.93c-13.68,7.23-27.93,13.26-42.01,19.61c-0.57,0.26-1.24,0-1.5-0.57
				c-0.26-0.57-0.01-1.23,0.55-1.49l0.04-0.02c27.86-13.18,55.05-27.63,81.41-43.52c26.24-16.07,51.82-33.21,76.58-51.48
				c24.66-18.4,48.85-37.43,72.19-57.5c23.3-20.11,45.94-40.97,68.13-62.31c22.07-21.46,43.58-43.51,64.51-66.1l15.59-17.04
				l15.34-17.27c10.15-11.58,20.28-23.19,30.18-34.99c19.86-23.55,39.1-47.62,57.85-72.08c9.33-12.26,18.61-24.56,27.61-37.07
				c4.51-6.25,8.96-12.53,13.36-18.85l6.55-9.51l3.2-4.8c1.01-1.58,2.16-3.31,2.95-4.69l0.16-0.28c0.31-0.54,0.99-0.72,1.53-0.42
				C2269.52,900.49,2269.71,901.15,2269.45,901.67z"/>
		</g>
		<g>
			<path class="st1" d="M473.37,316.25c120.32,52.18,808.08,384.46,612.21,1085.85c0,0-509.09-102.19-627.65-1074.36
				C456.89,319.23,465.51,312.84,473.37,316.25z"/>
			<path class="st2" d="M539.19,430.37c28.9,30.37,57.14,61.3,85.13,92.48c27.97,31.19,55.57,62.71,82.81,94.55
				c54.47,63.67,107.54,128.57,158.57,195.07c50.98,66.53,100.06,134.6,145.34,205.24c22.75,35.25,44.24,71.34,64.32,108.22
				c20.03,36.91,38.65,74.68,54.2,113.85c0.93,2.33-0.21,4.98-2.55,5.9c-2.33,0.93-4.98-0.21-5.9-2.55l-0.01-0.02l-0.01-0.02
				c-15.17-38.78-33.44-76.37-53.16-113.15c-19.78-36.77-40.98-72.81-63.46-108.05c-44.75-70.63-93.38-138.81-143.92-205.5
				c-50.6-66.66-103.27-131.76-157.35-195.65c-27.04-31.95-54.46-63.58-82.24-94.89c-27.79-31.29-55.87-62.37-84.55-92.82
				l-0.01-0.01c-0.73-0.77-0.69-1.99,0.08-2.72C537.24,429.57,538.46,429.6,539.19,430.37z"/>
		</g>
		<g>
			<g>
				<g>
					<path class="st1" d="M820.15,1463.26c0,0-18.17-70.53-101.15-110.44c-77-37.03-263.97-118.37-318.86-187.12
						c-2.43-3.05-7.35,0.6-6.41,4.77c10.07,44.67,43.37,152.71,140.22,229.04C658.84,1497.93,820.15,1463.26,820.15,1463.26z"/>
				</g>
				<g>
					<path class="st2" d="M442.98,1233.57c3.79,8.14,8.5,15.81,13.55,23.18c2.45,3.74,5.18,7.29,7.84,10.86
						c2.68,3.57,5.65,6.91,8.41,10.4c11.57,13.58,24.53,25.89,38.41,36.98l5.17,4.2c1.74,1.38,3.58,2.63,5.37,3.95
						c3.62,2.58,7.16,5.26,10.82,7.77l11.24,7.15c3.68,2.49,7.58,4.62,11.45,6.8c3.88,2.16,7.71,4.41,11.63,6.49l12,5.82
						c7.9,4,16.23,7.48,24.38,11.18c16.43,7.19,32.97,14.11,49.61,20.84c16.64,6.72,33.38,13.2,50.14,19.74
						c8.39,3.25,16.78,6.5,25.13,9.92c4.18,1.67,8.36,3.38,12.52,5.15l6.24,2.63l6.18,2.81c8.25,3.7,16.35,7.83,24.26,12.31
						c7.85,4.6,15.35,9.88,22.04,16.09c0.46,0.43,0.49,1.15,0.06,1.61c-0.41,0.44-1.08,0.48-1.54,0.12l-0.03-0.03
						c-6.97-5.54-14.59-10.13-22.45-14.27c-7.98-3.96-16.12-7.59-24.47-10.82c-16.62-6.6-33.61-12.45-50.52-18.59l-25.4-9.19
						c-8.43-3.18-16.87-6.33-25.27-9.63c-8.42-3.23-16.78-6.6-25.13-10.03c-8.31-3.5-16.63-7.01-24.89-10.63
						c-33.06-14.22-65.78-31.79-93.11-55.94c-13.76-11.9-26.48-25.06-37.4-39.58c-5.38-7.32-10.55-14.79-15.02-22.67
						c-4.51-7.85-8.57-15.98-11.51-24.53c-0.03-0.07,0.01-0.15,0.09-0.18C442.87,1233.47,442.95,1233.51,442.98,1233.57z"/>
				</g>
			</g>
			<g>
				<path class="st1" d="M380.44,724.83c-0.22-6.88,8.96-9.49,12.36-3.5c32.92,57.87,124.01,206.9,223.63,273.23
					c162.21,108,303.45,313.76,251.02,451.56C867.45,1446.12,404.04,1474.79,380.44,724.83z"/>
				<path class="st2" d="M417.02,810.01c0.57,1.48,1.37,3.24,2.08,4.89l2.27,5.01l4.65,9.98l9.52,19.88
					c6.45,13.2,13.06,26.32,19.8,39.38c13.43,26.14,27.32,52.03,41.72,77.64c28.92,51.14,59.25,101.49,92.2,150.1
					c16.57,24.23,33.28,48.37,50.98,71.79c17.7,23.41,35.92,46.42,55.05,68.66c19.14,22.23,38.87,43.97,59.82,64.52
					c20.89,20.6,42.78,40.17,65.71,58.53l0.01,0.01c0.49,0.39,0.57,1.11,0.18,1.6c-0.38,0.48-1.07,0.56-1.56,0.2
					c-23.69-17.54-46.08-36.8-67.6-56.96c-21.39-20.32-41.56-41.86-61.16-63.9c-38.73-44.49-74.27-91.69-107.12-140.62
					c-16.48-24.44-32.14-49.4-47.44-74.58c-15.28-25.19-30.03-50.7-44.05-76.6c-14.06-25.88-27.73-51.97-40.69-78.41
					c-6.45-13.23-12.79-26.53-18.95-39.89c-3.06-6.7-6.12-13.39-9.08-20.14l-4.37-10.15l-2.13-5.1c-0.68-1.75-1.39-3.34-2.05-5.33
					c-0.2-0.59,0.12-1.23,0.71-1.42c0.57-0.19,1.19,0.1,1.41,0.66L417.02,810.01z"/>
			</g>
		</g>
		<g>
			<linearGradient id="SVGID_2_" gradientUnits="userSpaceOnUse" x1="591.2335" y1="1533.5803" x2="1459.4395" y2="529.006">
				<stop  offset="0" style="stop-color:#09005D"/>
				<stop  offset="1" style="stop-color:#1A0F91"/>
			</linearGradient>
			<path class="st3" d="M1737.24,175.96c-8.95-9.21-21.25-14.41-34.1-14.4l-973.1,0.57c-12.85,0.01-25.15,5.22-34.09,14.45
				c-8.94,9.23-13.76,21.69-13.36,34.53l38.57,1243.09c0.8,25.65,21.82,45.54,47.48,45.54h898.01c25.69,0,46.73-19.93,47.49-45.62
				l36.52-1243.91C1751.04,197.38,1746.2,185.18,1737.24,175.96z"/>
			<linearGradient id="SVGID_3_" gradientUnits="userSpaceOnUse" x1="730.207" y1="831.4745" x2="1706.4653" y2="831.4745">
				<stop  offset="0" style="stop-color:#DAE3FE"/>
				<stop  offset="1" style="stop-color:#E9EFFD"/>
			</linearGradient>
			<path class="st4" d="M1694.19,233.18c-8.18-8.42-19.43-13.17-31.17-13.16l-889.42,0.52c-11.75,0.01-22.99,4.77-31.16,13.21
				c-8.17,8.43-12.58,19.82-12.22,31.56l35.26,1136.05c0.73,23.44,19.94,41.58,43.4,41.58h820.78c23.48,0,42.71-18.18,43.4-41.65
				l33.38-1136.82C1706.79,252.73,1702.37,241.6,1694.19,233.18z"/>
			<g>
				<g>
					<linearGradient id="SVGID_4_" gradientUnits="userSpaceOnUse" x1="1368.7206" y1="542.4202" x2="1573.2629" y2="808.3252">
						<stop  offset="0" style="stop-color:#4042E2"/>
						<stop  offset="1" style="stop-color:#4F52FF"/>
					</linearGradient>
					<circle class="st5" cx="1216.62" cy="344.69" r="96.21"/>
					<linearGradient id="SVGID_5_" gradientUnits="userSpaceOnUse" x1="475.2658" y1="362.8314" x2="803.2655" y2="354.8314">
						<stop  offset="0" style="stop-color:#4042E2"/>
						<stop  offset="1" style="stop-color:#4F52FF"/>
					</linearGradient>
					<circle class="st6" cx="1218.9" cy="344.69" r="89.39"/>
				</g>
				<g>
					<linearGradient id="SVGID_6_" gradientUnits="userSpaceOnUse" x1="1321.2113" y1="1430.6432" x2="1525.7537" y2="1696.5482">
						<stop  offset="0" style="stop-color:#4042E2"/>
						<stop  offset="1" style="stop-color:#4F52FF"/>
					</linearGradient>
					<circle class="st7" cx="1216.62" cy="1294.68" r="96.21"/>
					<linearGradient id="SVGID_7_" gradientUnits="userSpaceOnUse" x1="1184.0309" y1="828.0236" x2="1213.5762" y2="1223.4728">
						<stop  offset="0" style="stop-color:#4042E2"/>
						<stop  offset="1" style="stop-color:#4F52FF"/>
					</linearGradient>
					<circle class="st8" cx="1218.9" cy="1294.68" r="89.39"/>
				</g>
				<linearGradient id="SVGID_8_" gradientUnits="userSpaceOnUse" x1="896.9064" y1="808.4414" x2="1153.7205" y2="702.7612">
					<stop  offset="0" style="stop-color:#E1473D"/>
					<stop  offset="1" style="stop-color:#E9605A"/>
				</linearGradient>
				<polygon class="st9" points="1216.9,565.8 1105.55,676.6 1216.35,787.95 1327.7,677.15 				"/>
				<linearGradient id="SVGID_9_" gradientUnits="userSpaceOnUse" x1="1214.0822" y1="861.1285" x2="1217.1123" y2="641.4346">
					<stop  offset="0" style="stop-color:#FE7062"/>
					<stop  offset="1" style="stop-color:#FF928E"/>
				</linearGradient>
				<polygon class="st10" points="1216.87,574.89 1114.64,676.63 1216.37,778.86 1318.61,677.13 				"/>
				<g>
					<linearGradient id="SVGID_10_" gradientUnits="userSpaceOnUse" x1="1364.9745" y1="778.2844" x2="1423.3069" y2="845.7077">
						<stop  offset="0" style="stop-color:#4042E2"/>
						<stop  offset="1" style="stop-color:#4F52FF"/>
					</linearGradient>
					<path class="st11" d="M1612.49,947.48c0,33.89-27.47,61.36-61.36,61.36h-79.54c-33.89,0-61.36-27.47-61.36-61.36l0,0
						c0-33.89,27.47-61.36,61.36-61.36h79.54C1585.02,886.12,1612.49,913.59,1612.49,947.48L1612.49,947.48z"/>
					<linearGradient id="SVGID_11_" gradientUnits="userSpaceOnUse" x1="1510.7476" y1="1056.5718" x2="1510.7476" y2="888.3926">
						<stop  offset="0" style="stop-color:#FE7062"/>
						<stop  offset="1" style="stop-color:#FF928E"/>
					</linearGradient>
					<path class="st12" d="M1604.12,947.48c0,31.69-25.28,56.82-56.46,56.82h-73.83c-31.18,0-56.46-25.13-56.46-56.82l0,0
						c0-31.69,25.28-56.82,56.46-56.82h73.83C1578.84,890.67,1604.12,915.79,1604.12,947.48L1604.12,947.48z"/>
				</g>
				<g>
					<linearGradient id="SVGID_12_" gradientUnits="userSpaceOnUse" x1="1071.7972" y1="778.2844" x2="1130.1298" y2="845.7077">
						<stop  offset="0" style="stop-color:#4042E2"/>
						<stop  offset="1" style="stop-color:#4F52FF"/>
					</linearGradient>
					<path class="st13" d="M1319.32,947.48c0,33.89-27.47,61.36-61.36,61.36h-79.54c-33.89,0-61.36-27.47-61.36-61.36l0,0
						c0-33.89,27.47-61.36,61.36-61.36h79.54C1291.84,886.12,1319.32,913.59,1319.32,947.48L1319.32,947.48z"/>
					<linearGradient id="SVGID_13_" gradientUnits="userSpaceOnUse" x1="1217.5703" y1="1056.5718" x2="1217.5703" y2="888.3926">
						<stop  offset="0" style="stop-color:#FE7062"/>
						<stop  offset="1" style="stop-color:#FF928E"/>
					</linearGradient>
					<path class="st14" d="M1310.94,947.48c0,31.69-25.28,56.82-56.46,56.82h-73.83c-31.18,0-56.46-25.13-56.46-56.82l0,0
						c0-31.69,25.28-56.82,56.46-56.82h73.83C1285.66,890.67,1310.94,915.79,1310.94,947.48L1310.94,947.48z"/>
				</g>
				<g>
					<linearGradient id="SVGID_14_" gradientUnits="userSpaceOnUse" x1="771.802" y1="778.2844" x2="830.1344" y2="845.7077">
						<stop  offset="0" style="stop-color:#4042E2"/>
						<stop  offset="1" style="stop-color:#4F52FF"/>
					</linearGradient>
					<path class="st15" d="M1019.32,947.48c0,33.89-27.47,61.36-61.36,61.36h-79.54c-33.89,0-61.36-27.47-61.36-61.36l0,0
						c0-33.89,27.47-61.36,61.36-61.36h79.54C991.85,886.12,1019.32,913.59,1019.32,947.48L1019.32,947.48z"/>
					<linearGradient id="SVGID_15_" gradientUnits="userSpaceOnUse" x1="917.5751" y1="1056.5718" x2="917.5751" y2="888.3926">
						<stop  offset="0" style="stop-color:#FE7062"/>
						<stop  offset="1" style="stop-color:#FF928E"/>
					</linearGradient>
					<path class="st16" d="M1010.94,947.48c0,31.69-25.28,56.82-56.46,56.82h-73.83c-31.18,0-56.46-25.13-56.46-56.82l0,0
						c0-31.69,25.28-56.82,56.46-56.82h73.83C985.67,890.67,1010.94,915.79,1010.94,947.48L1010.94,947.48z"/>
				</g>
				<g>
					
						<linearGradient id="SVGID_16_" gradientUnits="userSpaceOnUse" x1="2750.0706" y1="-2622.4248" x2="2673.4858" y2="-2585.9939" gradientTransform="matrix(0 1 -1 0 -1386.0272 -2214.2886)">
						<stop  offset="0" style="stop-color:#09005D"/>
						<stop  offset="1" style="stop-color:#1A0F91"/>
					</linearGradient>
					<path class="st17" d="M1218.18,544.08c-1.88,0-3.41-1.53-3.41-3.41v-86.36c0-1.88,1.53-3.41,3.41-3.41s3.41,1.53,3.41,3.41
						v86.36C1221.59,542.55,1220.07,544.08,1218.18,544.08z"/>
					
						<linearGradient id="SVGID_17_" gradientUnits="userSpaceOnUse" x1="2753.8901" y1="-2594.6682" x2="2743.0591" y2="-2617.4368" gradientTransform="matrix(0 1 -1 0 -1386.0272 -2214.2886)">
						<stop  offset="0" style="stop-color:#09005D"/>
						<stop  offset="1" style="stop-color:#1A0F91"/>
					</linearGradient>
					<polygon class="st18" points="1230.58,527.03 1216.62,551.22 1202.66,527.03 					"/>
				</g>
				<g>
					
						<linearGradient id="SVGID_18_" gradientUnits="userSpaceOnUse" x1="3072.6167" y1="-2618.0166" x2="3014.5654" y2="-2590.4021" gradientTransform="matrix(0 1 -1 0 -1386.0272 -2214.2886)">
						<stop  offset="0" style="stop-color:#09005D"/>
						<stop  offset="1" style="stop-color:#1A0F91"/>
					</linearGradient>
					<path class="st19" d="M1218.18,864.53c-1.88,0-3.41-1.53-3.41-3.41v-63.64c0-1.88,1.53-3.41,3.41-3.41s3.41,1.53,3.41,3.41
						v63.64C1221.59,863,1220.07,864.53,1218.18,864.53z"/>
					
						<linearGradient id="SVGID_19_" gradientUnits="userSpaceOnUse" x1="3074.3396" y1="-2594.6682" x2="3063.5085" y2="-2617.4368" gradientTransform="matrix(0 1 -1 0 -1386.0272 -2214.2886)">
						<stop  offset="0" style="stop-color:#09005D"/>
						<stop  offset="1" style="stop-color:#1A0F91"/>
					</linearGradient>
					<polygon class="st20" points="1230.58,847.48 1216.62,871.66 1202.66,847.48 					"/>
				</g>
				<g>
					
						<linearGradient id="SVGID_20_" gradientUnits="userSpaceOnUse" x1="3377.543" y1="-2617.4385" x2="3302.812" y2="-2581.8894" gradientTransform="matrix(0 1 -1 0 -1386.0272 -2214.2886)">
						<stop  offset="0" style="stop-color:#09005D"/>
						<stop  offset="1" style="stop-color:#1A0F91"/>
					</linearGradient>
					<path class="st21" d="M1213.64,1171.34c-1.88,0-3.41-1.53-3.41-3.41v-84.09c0-1.88,1.53-3.41,3.41-3.41s3.41,1.53,3.41,3.41
						v84.09C1217.05,1169.82,1215.52,1171.34,1213.64,1171.34z"/>
					
						<linearGradient id="SVGID_21_" gradientUnits="userSpaceOnUse" x1="3381.1531" y1="-2591.1731" x2="3370.322" y2="-2613.9419" gradientTransform="matrix(0 1 -1 0 -1386.0272 -2214.2886)">
						<stop  offset="0" style="stop-color:#09005D"/>
						<stop  offset="1" style="stop-color:#1A0F91"/>
					</linearGradient>
					<polygon class="st22" points="1227.09,1154.3 1213.13,1178.48 1199.17,1154.3 					"/>
				</g>
				<g>
					<linearGradient id="SVGID_22_" gradientUnits="userSpaceOnUse" x1="1094.3186" y1="667.9542" x2="872.2264" y2="773.6023">
						<stop  offset="0" style="stop-color:#09005D"/>
						<stop  offset="1" style="stop-color:#1A0F91"/>
					</linearGradient>
					<path class="st23" d="M906.82,841.8c-1.88,0-3.41-1.53-3.41-3.41V675.9c0-1.88,1.53-3.41,3.41-3.41h187.5
						c1.88,0,3.41,1.53,3.41,3.41s-1.53,3.41-3.41,3.41H910.23v159.09C910.23,840.28,908.71,841.8,906.82,841.8z"/>
					
						<linearGradient id="SVGID_23_" gradientUnits="userSpaceOnUse" x1="3062.9761" y1="-2283.3093" x2="3052.145" y2="-2306.0781" gradientTransform="matrix(0 1 -1 0 -1386.0272 -2214.2886)">
						<stop  offset="0" style="stop-color:#09005D"/>
						<stop  offset="1" style="stop-color:#1A0F91"/>
					</linearGradient>
					<polygon class="st24" points="919.23,836.12 905.26,860.3 891.3,836.12 					"/>
				</g>
				<g>
					
						<linearGradient id="SVGID_24_" gradientUnits="userSpaceOnUse" x1="-767.4609" y1="668.2332" x2="-989.5532" y2="773.8813" gradientTransform="matrix(-1 0 0 1 576.8573 -0.279)">
						<stop  offset="0" style="stop-color:#09005D"/>
						<stop  offset="1" style="stop-color:#1A0F91"/>
					</linearGradient>
					<path class="st25" d="M1531.81,841.8c-1.88,0-3.41-1.53-3.41-3.41V679.3h-184.09c-1.88,0-3.41-1.53-3.41-3.41
						s1.53-3.41,3.41-3.41h187.5c1.88,0,3.41,1.53,3.41,3.41v162.5C1535.22,840.28,1533.7,841.8,1531.81,841.8z"/>
					
						<linearGradient id="SVGID_25_" gradientUnits="userSpaceOnUse" x1="3063.2551" y1="-422.6987" x2="3052.4241" y2="-445.4674" gradientTransform="matrix(0 1 1 0 1962.8844 -2214.5674)">
						<stop  offset="0" style="stop-color:#09005D"/>
						<stop  offset="1" style="stop-color:#1A0F91"/>
					</linearGradient>
					<polygon class="st26" points="1518.24,836.12 1532.2,860.3 1546.16,836.12 					"/>
				</g>
				<linearGradient id="SVGID_26_" gradientUnits="userSpaceOnUse" x1="901.1416" y1="1052.5946" x2="1532.95" y2="1052.5946">
					<stop  offset="0" style="stop-color:#09005D"/>
					<stop  offset="1" style="stop-color:#1A0F91"/>
				</linearGradient>
				<path class="st27" d="M1529.54,1086.12H904.55c-1.88,0-3.41-1.53-3.41-3.41v-60.23c0-1.88,1.53-3.41,3.41-3.41
					c1.88,0,3.41,1.53,3.41,3.41v56.82h618.17v-56.82c0-1.88,1.53-3.41,3.41-3.41c1.88,0,3.41,1.53,3.41,3.41v60.23
					C1532.95,1084.59,1531.42,1086.12,1529.54,1086.12z"/>
			</g>
			<g>
				<linearGradient id="SVGID_27_" gradientUnits="userSpaceOnUse" x1="1116.8335" y1="253.7572" x2="735.0217" y2="326.4832">
					<stop  offset="0" style="stop-color:#4042E2"/>
					<stop  offset="1" style="stop-color:#4F52FF"/>
				</linearGradient>
				<path class="st28" d="M1048.87,292.19c0,7.95-6.44,14.39-14.39,14.39H799.63c-7.95,0-14.39-6.44-14.39-14.39v-0.76
					c0-7.95,6.44-14.39,14.39-14.39h234.84c7.95,0,14.39,6.44,14.39,14.39V292.19z"/>
				<linearGradient id="SVGID_28_" gradientUnits="userSpaceOnUse" x1="1116.8335" y1="319.6653" x2="735.0217" y2="392.3914">
					<stop  offset="0" style="stop-color:#4042E2"/>
					<stop  offset="1" style="stop-color:#4F52FF"/>
				</linearGradient>
				<path class="st29" d="M1048.87,358.1c0,7.95-6.44,14.39-14.39,14.39H799.63c-7.95,0-14.39-6.44-14.39-14.39v-0.76
					c0-7.95,6.44-14.39,14.39-14.39h234.84c7.95,0,14.39,6.44,14.39,14.39V358.1z"/>
			</g>
		</g>
		<g>
			<g>
				<path class="st30" d="M1904.37,430.11c-1.87,0-3.65-0.99-4.62-2.65l-11.09-18.9c-10.35-0.51-20.55-2.52-30.35-5.98l-17.43,13.3
					c-1.82,1.39-4.32,1.47-6.22,0.2l-23.76-15.8c-1.91-1.27-2.8-3.61-2.22-5.82l5.53-21.22c-6.98-7.71-12.78-16.33-17.25-25.68
					l-21.72-2.92c-2.26-0.31-4.09-2.02-4.54-4.25l-5.63-27.98c-0.45-2.24,0.57-4.53,2.55-5.68l18.9-11.09
					c0.51-10.35,2.52-20.55,5.98-30.35l-13.3-17.43c-1.39-1.82-1.47-4.32-0.2-6.23l15.8-23.76c1.27-1.91,3.61-2.8,5.82-2.22
					l21.22,5.53c7.71-6.99,16.33-12.78,25.68-17.25l2.92-21.72c0.31-2.27,2.02-4.09,4.26-4.54l27.97-5.63
					c2.24-0.45,4.52,0.57,5.68,2.54l11.09,18.9c10.35,0.51,20.55,2.52,30.35,5.98l17.43-13.3c1.82-1.39,4.32-1.46,6.22-0.2
					l23.76,15.8c1.91,1.27,2.8,3.61,2.22,5.82l-5.53,21.22c6.98,7.71,12.78,16.33,17.25,25.68l21.72,2.92
					c2.26,0.3,4.09,2.01,4.54,4.26l5.63,27.98c0.45,2.25-0.57,4.53-2.55,5.69l-18.9,11.09c-0.51,10.35-2.52,20.55-5.98,30.36
					l13.3,17.43c1.39,1.82,1.47,4.32,0.2,6.22l-15.8,23.76c-1.27,1.91-3.6,2.8-5.82,2.22l-21.22-5.53
					c-7.71,6.99-16.33,12.78-25.68,17.25l-2.92,21.72c-0.31,2.27-2.02,4.09-4.26,4.54l-27.98,5.63
					C1905.07,430.08,1904.72,430.11,1904.37,430.11z M1857.14,394.89l1.76,0.66c10.25,3.82,20.97,5.93,31.86,6.28l1.88,0.06
					l12.46,21.23l25.94-5.22l3.28-24.4l1.71-0.78c9.91-4.53,18.98-10.62,26.95-18.11l1.37-1.29l23.84,6.21l14.65-22.03l-14.94-19.58
					l0.66-1.76c3.82-10.25,5.93-20.97,6.28-31.86l0.06-1.88l21.24-12.46l-5.22-25.94l-24.4-3.28l-0.78-1.71
					c-4.53-9.91-10.62-18.98-18.11-26.95l-1.29-1.37l6.21-23.84l-22.03-14.65l-19.58,14.94l-1.76-0.66
					c-10.25-3.82-20.97-5.93-31.86-6.28l-1.88-0.06l-12.46-21.24l-25.94,5.22l-3.28,24.4l-1.71,0.78
					c-9.91,4.53-18.97,10.62-26.95,18.11l-1.37,1.29l-23.84-6.21l-14.65,22.03l14.94,19.58l-0.66,1.76
					c-3.82,10.25-5.93,20.97-6.28,31.86l-0.06,1.88l-21.24,12.46l5.22,25.94l24.4,3.28l0.78,1.71c4.53,9.91,10.62,18.98,18.11,26.95
					l1.29,1.37l-6.21,23.84l22.03,14.65L1857.14,394.89z M1776.13,337.88L1776.13,337.88L1776.13,337.88L1776.13,337.88z
					 M1894.42,373.6c-14.09,0-27.87-4.13-39.87-12.12c-16.07-10.69-27.02-27-30.83-45.92c-1.02-5.06-1.49-10.21-1.42-15.32
					c0.03-1.88,1.6-3.36,3.46-3.36c1.88,0.03,3.39,1.57,3.36,3.46c-0.06,4.62,0.37,9.29,1.29,13.88
					c3.45,17.14,13.36,31.91,27.92,41.59c14.55,9.68,32.01,13.12,49.15,9.67c17.14-3.45,31.91-13.36,41.59-27.92
					c9.68-14.56,13.11-32.01,9.67-49.15c-7.11-35.38-41.68-58.38-77.07-51.26c-11.63,2.34-22.39,7.77-31.12,15.72
					c-1.39,1.27-3.55,1.17-4.82-0.23c-1.27-1.39-1.17-3.55,0.23-4.82c9.64-8.77,21.52-14.78,34.36-17.36
					c39.07-7.85,77.24,17.53,85.1,56.6c7.86,39.07-17.53,77.24-56.6,85.1C1904.02,373.12,1899.2,373.6,1894.42,373.6z"/>
				<path class="st30" d="M1894.08,329.76c-10.74,0-21.05-6.04-25.98-16.35v0c-6.83-14.3-0.76-31.5,13.55-38.33
					c14.3-6.83,31.5-0.76,38.33,13.54c3.31,6.93,3.73,14.73,1.17,21.97c-2.56,7.24-7.78,13.05-14.71,16.36
					C1902.44,328.86,1898.23,329.76,1894.08,329.76z M1874.25,310.47c5.21,10.91,18.33,15.54,29.24,10.33
					c10.91-5.21,15.55-18.33,10.33-29.24c-5.21-10.91-18.33-15.55-29.24-10.33C1873.67,286.44,1869.04,299.56,1874.25,310.47
					L1874.25,310.47z"/>
			</g>
			<g>
				<path class="st30" d="M2079.83,464.51c-0.42,0-0.84-0.06-1.25-0.18l-13.14-3.95c-1.78-0.53-3.02-2.14-3.09-4l-0.38-9.59
					c-3.84-2.39-7.34-5.25-10.45-8.53l-9.47,1.54c-1.84,0.29-3.65-0.6-4.53-2.23l-6.5-12.09c-0.88-1.63-0.62-3.65,0.63-5.01
					l6.51-7.05c-1.02-4.4-1.47-8.89-1.35-13.42l-7.79-5.61c-1.5-1.08-2.16-3.01-1.62-4.78l3.95-13.14c0.53-1.77,2.14-3.02,3.98-3.09
					l9.6-0.38c2.39-3.84,5.25-7.34,8.53-10.45l-1.54-9.47c-0.3-1.83,0.6-3.65,2.23-4.53l12.09-6.5c1.63-0.88,3.65-0.62,5.01,0.63
					l7.05,6.51c4.39-1.02,8.89-1.48,13.42-1.35l5.61-7.79c1.08-1.5,3.01-2.16,4.78-1.62l13.14,3.95c1.78,0.53,3.02,2.14,3.09,4
					l0.38,9.59c3.84,2.39,7.34,5.25,10.45,8.53l9.47-1.54c1.84-0.3,3.65,0.6,4.53,2.23l6.5,12.09c0.88,1.64,0.62,3.66-0.64,5.02
					l-6.5,7.04c1.02,4.39,1.47,8.89,1.35,13.42l7.79,5.61c1.51,1.09,2.16,3.01,1.62,4.78l-3.95,13.14
					c-0.53,1.77-2.14,3.02-3.99,3.09l-9.6,0.38c-2.39,3.84-5.25,7.34-8.53,10.45l1.54,9.47c0.3,1.83-0.6,3.65-2.23,4.53l-12.09,6.5
					c-1.63,0.88-3.64,0.62-5.01-0.63l-7.05-6.51c-4.39,1.02-8.89,1.47-13.42,1.35l-5.61,7.79
					C2082.53,463.86,2081.21,464.51,2079.83,464.51z M2077.83,458.72C2077.83,458.72,2077.83,458.72,2077.83,458.72L2077.83,458.72z
					 M2069.08,454.35l9.77,2.94l6.76-9.38l1.88,0.12c5.06,0.31,10.09-0.19,14.97-1.5l1.82-0.49l8.49,7.84l8.99-4.83l-1.85-11.41
					l1.41-1.25c3.78-3.34,6.98-7.26,9.51-11.66l0.94-1.63l11.55-0.46l2.94-9.77l-9.38-6.76l0.12-1.88c0.31-5.06-0.19-10.1-1.5-14.97
					l-0.49-1.82l7.84-8.49l-4.83-8.99l-11.41,1.85l-1.25-1.41c-3.34-3.78-7.26-6.98-11.66-9.51l-1.63-0.94l-0.46-11.55l-9.77-2.94
					l-6.76,9.38l-1.88-0.12c-5.06-0.31-10.1,0.19-14.97,1.5l-1.82,0.49l-8.49-7.84l-8.99,4.83l1.85,11.41l-1.41,1.25
					c-3.78,3.34-6.98,7.26-9.51,11.66l-0.94,1.63l-11.55,0.46l-2.94,9.77l9.38,6.76l-0.12,1.88c-0.32,5.06,0.19,10.1,1.5,14.97
					l0.49,1.82l-7.84,8.49l4.83,8.99l11.41-1.85l1.25,1.41c3.34,3.78,7.26,6.98,11.66,9.51l1.63,0.94L2069.08,454.35z
					 M2041.5,436.44h0.02H2041.5z M2144.03,377.66C2144.03,377.67,2144.03,377.67,2144.03,377.66L2144.03,377.66z M2090.68,437.98
					c-3.53,0-7.09-0.52-10.57-1.57c-9.34-2.81-17.03-9.09-21.65-17.68c-1.23-2.3-2.22-4.72-2.94-7.2c-0.52-1.81,0.52-3.7,2.33-4.22
					c1.81-0.52,3.7,0.52,4.22,2.33c0.58,2.02,1.39,3.99,2.39,5.86c3.76,6.99,10.01,12.1,17.61,14.38c7.6,2.28,15.63,1.48,22.62-2.28
					c14.43-7.76,19.86-25.8,12.1-40.23c-7.76-14.43-25.8-19.86-40.23-12.1c-4.74,2.55-8.7,6.33-11.44,10.93
					c-0.96,1.62-3.05,2.15-4.67,1.18c-1.62-0.96-2.15-3.06-1.18-4.67c3.37-5.66,8.24-10.31,14.07-13.44
					c17.74-9.54,39.93-2.86,49.47,14.88c9.54,17.74,2.86,39.93-14.88,49.47C2102.53,436.51,2096.63,437.98,2090.68,437.98z"/>
			</g>
		</g>
		<g>
			<g>
				<path class="st31" d="M2215.94,1003.09l-356.98-31.68c-14.47-1.28-25.59-13.37-25.67-27.9l-1.32-240.69
					c-0.09-16.38,13.77-29.38,30.11-28.25l380.12,26.45c15.72,1.09,27.49,14.88,26.09,30.58l-21.82,245.92
					C2245.1,993.02,2231.43,1004.47,2215.94,1003.09z"/>
				<path class="st1" d="M1852.9,726.13l-2.36,207.82c-0.1,9.03,6.71,16.64,15.69,17.53l342.3,34c9.64,0.96,18.21-6.14,19.07-15.79
					l19.72-222.21c0.87-9.81-6.56-18.39-16.4-18.93l-359.66-19.6C1861.37,708.39,1853.02,716.21,1852.9,726.13z"/>
				<path class="st30" d="M2015.18,907.69l193.72,11.37c1.99,0.12,3.48,1.85,3.31,3.83l-0.28,3.11c-0.17,1.92-1.85,3.35-3.78,3.21
					l-193.45-14.48c-1.96-0.15-3.42-1.87-3.25-3.83l0,0C2011.62,909,2013.27,907.58,2015.18,907.69z"/>
				<path class="st30" d="M2010.02,927.1l-0.12,1.33c-0.17,1.94,1.26,3.65,3.2,3.82l193.21,17.15c1.94,0.17,3.65-1.26,3.82-3.2
					l0.12-1.33c0.17-1.94-1.26-3.65-3.2-3.82l-193.21-17.15C2011.9,923.73,2010.19,925.16,2010.02,927.1z"/>
				<path class="st30" d="M2067.12,949.63l-0.05,0.58c-0.17,1.94,1.26,3.65,3.2,3.82l134.57,11.94c1.94,0.17,3.65-1.26,3.82-3.2
					l0.24-2.74c0.17-1.96-1.29-3.69-3.26-3.83l-134.76-9.79C2068.97,946.28,2067.29,947.71,2067.12,949.63z"/>
			</g>
			<g>
				<path class="st31" d="M2186.01,917.11l-421.29-8.57c-17.08-0.35-31.09-13.63-32.35-30.67l-20.82-282.23
					c-1.42-19.21,13.8-35.57,33.06-35.54l448.01,0.59c18.53,0.02,33.44,15.25,33.06,33.78l-5.91,290.22
					C2219.42,902.96,2204.29,917.48,2186.01,917.11z"/>
				<path class="st1" d="M1737.98,621.29l13.87,243.97c0.6,10.6,9.2,18.98,19.81,19.3l404.26,12.47
					c11.39,0.35,20.87-8.66,21.1-20.05l5.34-262.24c0.24-11.58-9.17-21.05-20.75-20.89l-423.47,5.81
					C1746.49,599.81,1737.32,609.65,1737.98,621.29z"/>
				<path class="st31" d="M1942.87,821.28l228.15-2.18c2.34-0.02,4.23,1.89,4.19,4.23l-0.07,3.67c-0.05,2.27-1.91,4.08-4.17,4.06
					l-228.08-1.49c-2.31-0.02-4.17-1.92-4.12-4.23l0,0C1938.81,823.1,1940.63,821.3,1942.87,821.28z"/>
				<path class="st31" d="M1938.37,844.46l-0.03,1.56c-0.05,2.29,1.77,4.18,4.06,4.23l228.01,4.64c2.29,0.05,4.18-1.77,4.23-4.06
					l0.03-1.56c0.05-2.29-1.77-4.18-4.06-4.23l-228.01-4.64C1940.31,840.35,1938.42,842.17,1938.37,844.46z"/>
				<path class="st31" d="M2007.16,866.31l-0.01,0.69c-0.05,2.29,1.77,4.18,4.06,4.23l158.81,3.23c2.29,0.05,4.18-1.77,4.23-4.06
					l0.07-3.23c0.05-2.32-1.81-4.22-4.13-4.23l-158.86-0.69C2009.06,862.24,2007.21,864.04,2007.16,866.31z"/>
			</g>
			<g>
				<linearGradient id="SVGID_29_" gradientUnits="userSpaceOnUse" x1="1588.22" y1="664.0312" x2="2158.501" y2="664.0312">
					<stop  offset="0" style="stop-color:#4042E2"/>
					<stop  offset="1" style="stop-color:#4F52FF"/>
				</linearGradient>
				<path class="st32" d="M2121.78,861.74H1654.4c-18.95,0-34.78-14.41-36.56-33.28l-29.46-312.51
					c-2.01-21.27,14.5-39.76,35.86-40.16l496.83-9.46c20.55-0.39,37.42,16.16,37.42,36.72v321.97
					C2158.5,845.3,2142.06,861.74,2121.78,861.74z"/>
				<linearGradient id="SVGID_30_" gradientUnits="userSpaceOnUse" x1="1618.1891" y1="671.5192" x2="2133.0815" y2="671.5192">
					<stop  offset="0" style="stop-color:#DAE3FE"/>
					<stop  offset="1" style="stop-color:#E9EFFD"/>
				</linearGradient>
				<path class="st33" d="M1618.26,543.81l20.89,270.23c0.91,11.74,10.63,20.84,22.41,20.96l448.58,4.7
					c12.64,0.13,22.95-10.07,22.95-22.71V526.05c0-12.85-10.65-23.14-23.49-22.7l-469.47,16
					C1627.21,519.8,1617.26,530.92,1618.26,543.81z"/>
				<path class="st31" d="M1857.74,541.33l252.96-7.57c2.59-0.08,4.74,2,4.74,4.6v4.07c0,2.52-2.02,4.56-4.54,4.6l-252.96,3.49
					c-2.56,0.04-4.66-2.03-4.66-4.6l0,0C1853.27,543.44,1855.25,541.41,1857.74,541.33z"/>
				<path class="st31" d="M1853.27,567.14v1.74c0,2.54,2.06,4.6,4.6,4.6h252.96c2.54,0,4.6-2.06,4.6-4.6v-1.74
					c0-2.54-2.06-4.6-4.6-4.6h-252.96C1855.33,562.54,1853.27,564.6,1853.27,567.14z"/>
				<g>
					<path class="st31" d="M1791.49,794.61c-1.14,0-2.06-0.92-2.06-2.06l-0.02-6.19c0-1.14,0.92-2.07,2.06-2.07c0,0,0,0,0.01,0
						c1.14,0,2.06,0.92,2.06,2.06l0.02,6.19C1793.56,793.68,1792.64,794.61,1791.49,794.61
						C1791.5,794.61,1791.5,794.61,1791.49,794.61z M1791.44,773.97c-1.14,0-2.06-0.92-2.06-2.06l-0.02-6.19
						c0-1.14,0.92-2.07,2.06-2.07c0,0,0,0,0.01,0c1.14,0,2.06,0.92,2.06,2.06l0.02,6.19
						C1793.51,773.05,1792.59,773.97,1791.44,773.97C1791.45,773.97,1791.44,773.97,1791.44,773.97z M1791.39,753.34
						c-1.14,0-2.06-0.92-2.06-2.06l-0.02-6.19c0-1.14,0.92-2.07,2.06-2.07c0,0,0,0,0.01,0c1.14,0,2.06,0.92,2.06,2.06l0.02,6.19
						C1793.46,752.41,1792.53,753.33,1791.39,753.34C1791.39,753.34,1791.39,753.34,1791.39,753.34z M1791.34,732.7
						c-1.14,0-2.06-0.92-2.06-2.06l-0.02-6.19c0-1.14,0.92-2.07,2.06-2.07c0,0,0,0,0,0c1.14,0,2.06,0.92,2.06,2.06l0.02,6.19
						C1793.4,731.77,1792.48,732.7,1791.34,732.7C1791.34,732.7,1791.34,732.7,1791.34,732.7z"/>
				</g>
				<g>
					<path class="st31" d="M1895.15,788.73c-1.14,0-2.06-0.92-2.06-2.06v-6.19c0-1.14,0.92-2.06,2.06-2.06
						c1.14,0,2.06,0.92,2.06,2.06v6.19C1897.21,787.81,1896.29,788.73,1895.15,788.73z M1895.15,768.09c-1.14,0-2.06-0.92-2.06-2.06
						v-6.19c0-1.14,0.92-2.06,2.06-2.06c1.14,0,2.06,0.92,2.06,2.06v6.19C1897.21,767.17,1896.29,768.09,1895.15,768.09z
						 M1895.15,747.46c-1.14,0-2.06-0.92-2.06-2.06v-6.19c0-1.14,0.92-2.06,2.06-2.06c1.14,0,2.06,0.92,2.06,2.06v6.19
						C1897.21,746.53,1896.29,747.46,1895.15,747.46z M1895.15,726.82c-1.14,0-2.06-0.92-2.06-2.06v-6.19
						c0-1.14,0.92-2.06,2.06-2.06c1.14,0,2.06,0.92,2.06,2.06v6.19C1897.21,725.89,1896.29,726.82,1895.15,726.82z M1895.15,706.18
						c-1.14,0-2.06-0.92-2.06-2.06v-6.19c0-1.14,0.92-2.06,2.06-2.06c1.14,0,2.06,0.92,2.06,2.06v6.19
						C1897.21,705.26,1896.29,706.18,1895.15,706.18z"/>
				</g>
				<g>
					<path class="st31" d="M1974.21,805.79c-1.11,0-2.03-0.88-2.06-2l-0.11-3.7c-0.04-1.14,0.86-2.09,2-2.13
						c1.17-0.07,2.09,0.86,2.13,2l0.11,3.7c0.04,1.14-0.86,2.09-2,2.13C1974.25,805.79,1974.23,805.79,1974.21,805.79z
						 M1973.65,787.65c-1.11,0-2.03-0.88-2.06-2l-0.19-6.19c-0.04-1.14,0.86-2.09,2-2.13c1.16-0.03,2.09,0.86,2.13,2l0.19,6.19
						c0.04,1.14-0.86,2.09-2,2.13C1973.69,787.65,1973.67,787.65,1973.65,787.65z M1973.01,767.02c-1.11,0-2.03-0.88-2.06-2
						l-0.19-6.19c-0.04-1.14,0.86-2.09,2-2.13c1.1,0.01,2.09,0.86,2.13,2l0.19,6.19c0.04,1.14-0.86,2.09-2,2.13
						C1973.05,767.02,1973.03,767.02,1973.01,767.02z M1972.37,746.4c-1.11,0-2.03-0.88-2.06-2l-0.19-6.19
						c-0.04-1.14,0.86-2.09,2-2.13c1.09-0.06,2.09,0.86,2.13,2l0.19,6.19c0.04,1.14-0.86,2.09-2,2.13
						C1972.41,746.4,1972.39,746.4,1972.37,746.4z M1971.73,725.77c-1.11,0-2.03-0.88-2.06-2l-0.19-6.19
						c-0.04-1.14,0.86-2.09,2-2.13c1.14-0.01,2.09,0.86,2.13,2l0.19,6.19c0.04,1.14-0.86,2.09-2,2.13
						C1971.77,725.77,1971.75,725.77,1971.73,725.77z M1971.09,705.14c-1.11,0-2.03-0.88-2.06-2l-0.19-6.19
						c-0.04-1.14,0.86-2.09,2-2.13c1.14-0.08,2.09,0.86,2.13,2l0.19,6.19c0.04,1.14-0.86,2.09-2,2.13
						C1971.13,705.14,1971.11,705.14,1971.09,705.14z M1970.45,684.51c-1.11,0-2.03-0.88-2.06-2l-0.19-6.19
						c-0.04-1.14,0.86-2.09,2-2.13c1.18-0.04,2.09,0.86,2.13,2l0.19,6.19c0.04,1.14-0.86,2.09-2,2.13
						C1970.49,684.51,1970.47,684.51,1970.45,684.51z"/>
				</g>
				<g>
					<path class="st31" d="M2049.36,794.23c-1.14,0-2.06-0.92-2.06-2.06v-6.19c0-1.14,0.92-2.06,2.06-2.06
						c1.14,0,2.06,0.92,2.06,2.06v6.19C2051.42,793.31,2050.5,794.23,2049.36,794.23z M2049.36,773.6c-1.14,0-2.06-0.92-2.06-2.06
						v-6.19c0-1.14,0.92-2.06,2.06-2.06c1.14,0,2.06,0.92,2.06,2.06v6.19C2051.42,772.67,2050.5,773.6,2049.36,773.6z
						 M2049.36,752.96c-1.14,0-2.06-0.92-2.06-2.06v-6.19c0-1.14,0.92-2.06,2.06-2.06c1.14,0,2.06,0.92,2.06,2.06v6.19
						C2051.42,752.03,2050.5,752.96,2049.36,752.96z M2049.36,732.32c-1.14,0-2.06-0.92-2.06-2.06v-6.19c0-1.14,0.92-2.06,2.06-2.06
						c1.14,0,2.06,0.92,2.06,2.06v6.19C2051.42,731.4,2050.5,732.32,2049.36,732.32z M2049.36,711.68c-1.14,0-2.06-0.92-2.06-2.06
						v-6.19c0-1.14,0.92-2.06,2.06-2.06c1.14,0,2.06,0.92,2.06,2.06v6.19C2051.42,710.76,2050.5,711.68,2049.36,711.68z
						 M2049.36,691.04c-1.14,0-2.06-0.92-2.06-2.06v-6.19c0-1.14,0.92-2.06,2.06-2.06c1.14,0,2.06,0.92,2.06,2.06v6.19
						C2051.42,690.12,2050.5,691.04,2049.36,691.04z M2049.36,670.41c-1.14,0-2.06-0.92-2.06-2.06v-6.19c0-1.14,0.92-2.06,2.06-2.06
						c1.14,0,2.06,0.92,2.06,2.06v6.19C2051.42,669.48,2050.5,670.41,2049.36,670.41z M2049.36,649.77c-1.14,0-2.06-0.92-2.06-2.06
						v-6.19c0-1.14,0.92-2.06,2.06-2.06c1.14,0,2.06,0.92,2.06,2.06v6.19C2051.42,648.84,2050.5,649.77,2049.36,649.77z
						 M2049.36,629.13c-1.14,0-2.06-0.92-2.06-2.06v-6.19c0-1.14,0.92-2.06,2.06-2.06c1.14,0,2.06,0.92,2.06,2.06v6.19
						C2051.42,628.21,2050.5,629.13,2049.36,629.13z"/>
				</g>
				<g>
					<path class="st31" d="M1680.54,818.6c-1.59,0-2.94-1.22-3.08-2.83l-21.16-249.86c-0.14-1.7,1.12-3.2,2.82-3.35
						c1.71-0.09,3.2,1.12,3.35,2.82l21.16,249.86c0.14,1.7-1.12,3.2-2.82,3.35C1680.71,818.59,1680.62,818.6,1680.54,818.6z"/>
					<g>
						<polygon class="st31" points="1649.97,578.82 1659.54,567.47 1670.88,577.05 1670.13,568.17 1658.79,558.59 1649.21,569.94 
													"/>
					</g>
				</g>
				<g>
					<path class="st31" d="M2099.83,806.82h-435.34c-1.71,0-3.1-1.39-3.1-3.1c0-1.71,1.39-3.1,3.1-3.1h435.34
						c1.71,0,3.1,1.39,3.1,3.1C2102.93,805.43,2101.54,806.82,2099.83,806.82z"/>
					<g>
						<polygon class="st31" points="2087.5,814.22 2098,803.72 2087.5,793.23 2096.41,793.23 2106.91,803.72 2096.41,814.22 						
							"/>
					</g>
				</g>
				<g>
					<path class="st31" d="M1698.65,735.03c-1.53,0-2.86-1.13-3.06-2.69c-0.23-1.69,0.97-3.25,2.66-3.48
						c2.29-0.3,230.22-31.52,355-123.52c1.38-1.02,3.31-0.72,4.33,0.65c1.01,1.38,0.72,3.32-0.66,4.33
						c-126.07,92.96-355.56,124.37-357.86,124.68C1698.92,735.02,1698.79,735.03,1698.65,735.03z"/>
				</g>
				<g>
					<path class="st31" d="M2056.04,624.3c-0.08,0-0.16,0-0.25-0.01c-1.7-0.13-2.98-1.62-2.84-3.33l0.96-12.16l-17.14-1.02
						c-1.71-0.1-3.01-1.57-2.91-3.27c0.1-1.71,1.55-3.04,3.27-2.91l20.29,1.2c0.83,0.05,1.61,0.43,2.15,1.06
						c0.55,0.63,0.82,1.45,0.75,2.28l-1.2,15.31C2059,623.06,2057.64,624.3,2056.04,624.3z"/>
				</g>
			</g>
		</g>
		<g>
			<linearGradient id="SVGID_31_" gradientUnits="userSpaceOnUse" x1="662.8983" y1="567.3053" x2="9.94" y2="2267.8674">
				<stop  offset="0" style="stop-color:#4042E2"/>
				<stop  offset="1" style="stop-color:#4F52FF"/>
			</linearGradient>
			<path class="st34" d="M228.17,1490.57h431.84c13.77,0,24.93-11.16,24.93-24.93v-646.8c0-13.74-11.12-24.9-24.87-24.93
				l-435.29-1.17c-13.85-0.04-25.07,11.22-25,25.07l3.45,647.97C203.31,1479.49,214.46,1490.57,228.17,1490.57z"/>
			<path class="st30" d="M249.34,824.65l386.13,2.38c13.96,0.09,25.21,11.46,25.14,25.42l-2.69,580.52
				c-0.06,13.75-11.09,24.93-24.84,25.18l-375.18,6.85c-14.01,0.26-25.56-10.93-25.76-24.94l-8.26-589.75
				C223.68,836.13,235.16,824.56,249.34,824.65z"/>
			<linearGradient id="SVGID_32_" gradientUnits="userSpaceOnUse" x1="265.0364" y1="858.5056" x2="577.6885" y2="858.5056">
				<stop  offset="0" style="stop-color:#DAE3FE"/>
				<stop  offset="1" style="stop-color:#E9EFFD"/>
			</linearGradient>
			<path class="st35" d="M265.04,857.17v2.66c0,4.18,3.39,7.57,7.57,7.57h297.51c4.18,0,7.57-3.39,7.57-7.57v-2.66
				c0-4.18-3.39-7.57-7.57-7.57H272.6C268.42,849.61,265.04,852.99,265.04,857.17z"/>
			<linearGradient id="SVGID_33_" gradientUnits="userSpaceOnUse" x1="298.2202" y1="892.6198" x2="573.5495" y2="892.6198">
				<stop  offset="0" style="stop-color:#DAE3FE"/>
				<stop  offset="1" style="stop-color:#E9EFFD"/>
			</linearGradient>
			<path class="st36" d="M298.23,890.66L298.23,890.66c0.21,3.96,3.45,7.09,7.42,7.16l260.19,4.74c4.23,0.08,7.71-3.33,7.71-7.57
				v-0.62c0-4.13-3.32-7.5-7.45-7.57l-260.19-4.12C301.52,882.61,297.99,886.28,298.23,890.66z"/>
			<linearGradient id="SVGID_34_" gradientUnits="userSpaceOnUse" x1="240.7103" y1="1182.7764" x2="646.1193" y2="1182.7764">
				<stop  offset="0" style="stop-color:#DAE3FE"/>
				<stop  offset="1" style="stop-color:#E9EFFD"/>
			</linearGradient>
			<path class="st37" d="M271.67,1446.12c-12.22,0-22.3-9.87-22.52-22.12l-8.44-474.8c-0.22-12.4,9.68-22.68,22.08-22.92
				l351.31-6.84c5.97-0.11,11.72,2.12,16.06,6.29c4.34,4.17,6.79,9.79,6.9,15.8l9.06,477.41c0.11,6.05-2.14,11.77-6.35,16.11
				c-4.21,4.34-9.85,6.77-15.9,6.84l-351.92,4.22C271.85,1446.11,271.76,1446.12,271.67,1446.12z M614.55,928.53
				c-0.09,0-0.18,0-0.27,0l-351.31,6.84c-7.39,0.14-13.3,6.27-13.17,13.67l0,0l8.44,474.8c0.13,7.31,6.14,13.19,13.43,13.19
				c0.05,0,0.11,0,0.16,0l351.92-4.22c3.6-0.04,6.97-1.49,9.48-4.08c2.51-2.59,3.85-6,3.79-9.6l-9.06-477.41
				c-0.07-3.59-1.53-6.94-4.12-9.42C621.33,929.85,618.04,928.53,614.55,928.53z"/>
			<linearGradient id="SVGID_35_" gradientUnits="userSpaceOnUse" x1="245.2714" y1="971.7543" x2="637.6326" y2="971.7543">
				<stop  offset="0" style="stop-color:#DAE3FE"/>
				<stop  offset="1" style="stop-color:#E9EFFD"/>
			</linearGradient>
			<path class="st38" d="M633.09,976.3H249.82c-2.51,0-4.55-2.04-4.55-4.55c0-2.51,2.04-4.55,4.55-4.55h383.27
				c2.51,0,4.55,2.04,4.55,4.55C637.63,974.26,635.6,976.3,633.09,976.3z"/>
		</g>
		<g>
			<linearGradient id="SVGID_36_" gradientUnits="userSpaceOnUse" x1="285.2783" y1="1308.5154" x2="333.0337" y2="1308.5154">
				<stop  offset="0" style="stop-color:#DAE3FE"/>
				<stop  offset="1" style="stop-color:#E9EFFD"/>
			</linearGradient>
			<path class="st39" d="M333.03,1226.63c0-2.66-2.16-4.82-4.82-4.82H290.1c-2.66,0-4.82,2.16-4.82,4.82v163.78
				c0,2.66,2.16,4.82,4.82,4.82h38.11c2.66,0,4.82-2.16,4.82-4.82V1226.63z"/>
			<linearGradient id="SVGID_37_" gradientUnits="userSpaceOnUse" x1="407.1803" y1="1298.1475" x2="455.564" y2="1298.1475">
				<stop  offset="0" style="stop-color:#DAE3FE"/>
				<stop  offset="1" style="stop-color:#E9EFFD"/>
			</linearGradient>
			<path class="st40" d="M450.06,1201.07h-38.01c-2.66,0-4.87,2.56-4.87,5.55v182.88c0,2.98,2.21,5.74,4.87,5.74h38.01
				c2.66,0,5.5-2.75,5.5-5.74v-182.88C455.56,1203.63,452.73,1201.07,450.06,1201.07z"/>
			<linearGradient id="SVGID_38_" gradientUnits="userSpaceOnUse" x1="344.9726" y1="1281.4958" x2="392.728" y2="1281.4958">
				<stop  offset="0" style="stop-color:#DAE3FE"/>
				<stop  offset="1" style="stop-color:#E9EFFD"/>
			</linearGradient>
			<path class="st41" d="M392.73,1172.59c0-2.66-2.16-4.82-4.82-4.82H349.8c-2.66,0-4.82,2.16-4.82,4.82v217.82
				c0,2.66,2.16,4.82,4.82,4.82h38.11c2.66,0,4.82-2.16,4.82-4.82V1172.59z"/>
			<linearGradient id="SVGID_39_" gradientUnits="userSpaceOnUse" x1="551.7032" y1="1242.8518" x2="599.4586" y2="1242.8518">
				<stop  offset="0" style="stop-color:#DAE3FE"/>
				<stop  offset="1" style="stop-color:#E9EFFD"/>
			</linearGradient>
			<path class="st42" d="M599.46,1095.3c0-2.66-2.16-4.82-4.82-4.82h-38.11c-2.66,0-4.82,2.16-4.82,4.82v295.11
				c0,2.66,2.16,4.82,4.82,4.82h38.11c2.66,0,4.82-2.16,4.82-4.82V1095.3z"/>
			<linearGradient id="SVGID_40_" gradientUnits="userSpaceOnUse" x1="480.6984" y1="1263.9017" x2="528.4538" y2="1263.9017">
				<stop  offset="0" style="stop-color:#DAE3FE"/>
				<stop  offset="1" style="stop-color:#E9EFFD"/>
			</linearGradient>
			<path class="st43" d="M528.45,1137.4c0-2.66-2.16-4.82-4.82-4.82h-38.11c-2.66,0-4.82,2.16-4.82,4.82v253.01
				c0,2.66,2.16,4.82,4.82,4.82h38.11c2.66,0,4.82-2.16,4.82-4.82V1137.4z"/>
			<g class="st44">
				<linearGradient id="SVGID_41_" gradientUnits="userSpaceOnUse" x1="306.6012" y1="1115.6154" x2="540.5993" y2="1115.6154">
					<stop  offset="0" style="stop-color:#DAE3FE"/>
					<stop  offset="1" style="stop-color:#E9EFFD"/>
				</linearGradient>
				<polygon class="st45" points="307.51,1163.31 306.6,1161.65 370.16,1126.93 429.24,1152.9 479.97,1103.14 480.07,1103.08 
					539.64,1067.92 540.6,1069.55 481.13,1104.64 429.65,1155.14 370.25,1129.03 				"/>
				<linearGradient id="SVGID_42_" gradientUnits="userSpaceOnUse" x1="300.2172" y1="1162.4814" x2="313.8888" y2="1162.4814">
					<stop  offset="0" style="stop-color:#DAE3FE"/>
					<stop  offset="1" style="stop-color:#E9EFFD"/>
				</linearGradient>
				<path class="st46" d="M313.89,1162.48c0,3.78-3.06,6.84-6.84,6.84c-3.78,0-6.84-3.06-6.84-6.84c0-3.78,3.06-6.84,6.84-6.84
					C310.83,1155.65,313.89,1158.71,313.89,1162.48z"/>
				<linearGradient id="SVGID_43_" gradientUnits="userSpaceOnUse" x1="363.3666" y1="1127.9771" x2="377.0382" y2="1127.9771">
					<stop  offset="0" style="stop-color:#DAE3FE"/>
					<stop  offset="1" style="stop-color:#E9EFFD"/>
				</linearGradient>
				<circle class="st47" cx="370.2" cy="1127.98" r="6.84"/>
				<linearGradient id="SVGID_44_" gradientUnits="userSpaceOnUse" x1="422.61" y1="1152.7159" x2="436.2816" y2="1152.7159">
					<stop  offset="0" style="stop-color:#DAE3FE"/>
					<stop  offset="1" style="stop-color:#E9EFFD"/>
				</linearGradient>
				<circle class="st48" cx="429.45" cy="1152.72" r="6.84"/>
				<linearGradient id="SVGID_45_" gradientUnits="userSpaceOnUse" x1="472.0881" y1="1103.889" x2="485.7597" y2="1103.889">
					<stop  offset="0" style="stop-color:#DAE3FE"/>
					<stop  offset="1" style="stop-color:#E9EFFD"/>
				</linearGradient>
				<circle class="st49" cx="478.92" cy="1103.89" r="6.84"/>
				<linearGradient id="SVGID_46_" gradientUnits="userSpaceOnUse" x1="533.2846" y1="1068.7336" x2="546.956" y2="1068.7336">
					<stop  offset="0" style="stop-color:#DAE3FE"/>
					<stop  offset="1" style="stop-color:#E9EFFD"/>
				</linearGradient>
				<path class="st50" d="M546.96,1068.73c0,3.78-3.06,6.84-6.84,6.84c-3.78,0-6.84-3.06-6.84-6.84c0-3.78,3.06-6.84,6.84-6.84
					C543.9,1061.9,546.96,1064.96,546.96,1068.73z"/>
			</g>
		</g>
		<g>
			<linearGradient id="SVGID_47_" gradientUnits="userSpaceOnUse" x1="580.8716" y1="1261.672" x2="918.1142" y2="1744.2162">
				<stop  offset="0" style="stop-color:#FE7062"/>
				<stop  offset="1" style="stop-color:#FF928E"/>
			</linearGradient>
			<path class="st51" d="M463.24,1288.57l2.97,177.11c0.23,13.76,11.45,24.79,25.21,24.79h347.62c13.92,0,25.21-11.29,25.21-25.21
				v-165.76c0-13.61-10.8-24.76-24.4-25.2l-350.59-11.35C474.86,1262.48,462.99,1274.16,463.24,1288.57z"/>
			<linearGradient id="SVGID_48_" gradientUnits="userSpaceOnUse" x1="539.4222" y1="490.0346" x2="617.4297" y2="1033.0879">
				<stop  offset="0" style="stop-color:#FF928E"/>
				<stop  offset="1" style="stop-color:#FEB3B1"/>
			</linearGradient>
			<path class="st52" d="M492.01,1305.82l7.54,162.87c0.29,6.25,5.5,11.14,11.76,11.03l316.54-5.57
				c6.31-0.11,11.37-5.26,11.37-11.57v-141.25c0-6.17-4.84-11.25-11-11.56l-324.08-16.05C497.32,1293.39,491.69,1299,492.01,1305.82
				z"/>
			<linearGradient id="SVGID_49_" gradientUnits="userSpaceOnUse" x1="517.2522" y1="1326.9639" x2="805.0754" y2="1326.9639">
				<stop  offset="0" style="stop-color:#FE7062"/>
				<stop  offset="1" style="stop-color:#FF928E"/>
			</linearGradient>
			<path class="st53" d="M517.25,1321.1v11.73c0,4.14,3.39,7.47,7.52,7.4l273.02-4.45c4.04-0.07,7.28-3.36,7.28-7.4l0,0
				c0-4.01-3.2-7.29-7.21-7.4l-273.02-7.28C520.69,1313.59,517.25,1316.93,517.25,1321.1z"/>
			<linearGradient id="SVGID_50_" gradientUnits="userSpaceOnUse" x1="521.328" y1="1369.9695" x2="796.1676" y2="1369.9695">
				<stop  offset="0" style="stop-color:#FE7062"/>
				<stop  offset="1" style="stop-color:#FF928E"/>
			</linearGradient>
			<path class="st54" d="M521.33,1365.41v10.76c0,4.19,3.47,7.54,7.66,7.4l260.03-9.06c3.99-0.14,7.15-3.41,7.15-7.4v-3.36
				c0-4.11-3.34-7.43-7.45-7.4l-260.03,1.65C524.61,1358.04,521.33,1361.34,521.33,1365.41z"/>
		</g>
		<g>
			<g>
				<path class="st31" d="M204.91,542.2c14.2,0,27.28,4.79,37.74,12.82l22.11-31.29c-16.26-11.69-36.19-18.59-57.75-18.59
					c-2.85,0-5.71,0.16-8.55,0.41l5.68,36.67C204.39,542.22,204.65,542.2,204.91,542.2z"/>
				<linearGradient id="SVGID_51_" gradientUnits="userSpaceOnUse" x1="711.6228" y1="-158.4068" x2="481.4263" y2="181.3008">
					<stop  offset="0" style="stop-color:#4042E2"/>
					<stop  offset="1" style="stop-color:#4F52FF"/>
				</linearGradient>
				<path class="st55" d="M204.91,666.24c-34.25,0-69.05-25.52-69.05-59.77c0-33.99,34.27-63.8,68.27-64.25l-5.68-36.67
					c-51.81,4.63-101.75,50.4-101.75,102.27c0,54.72,55.59,95.49,110.31,95.49c14.35,0,27.96-3.07,40.27-8.56l-22.27-31.86
					C218.7,665.05,211.95,666.24,204.91,666.24z"/>
				<linearGradient id="SVGID_52_" gradientUnits="userSpaceOnUse" x1="189.6303" y1="773.3369" x2="36.6148" y2="1103.3695">
					<stop  offset="0" style="stop-color:#4042E2"/>
					<stop  offset="1" style="stop-color:#4F52FF"/>
				</linearGradient>
				<path class="st56" d="M306.09,604.22c0-33.17-16.31-62.5-41.33-80.49l-22.11,31.29c14.76,11.34,24.28,29.15,24.28,49.2
					c0,27.21-17.54,50.32-41.92,58.67l22.27,31.86C281.93,679.31,306.09,644.6,306.09,604.22z"/>
			</g>
			<g>
				<linearGradient id="SVGID_53_" gradientUnits="userSpaceOnUse" x1="524.8708" y1="168.7001" x2="494.8677" y2="525.736">
					<stop  offset="0" style="stop-color:#E1473D"/>
					<stop  offset="1" style="stop-color:#E9605A"/>
				</linearGradient>
				<path class="st57" d="M487.67,542.2c24.33,0,45.37,14.01,55.53,34.41l25.56-32.19c-18.09-23.86-46.74-39.28-78.99-39.28
					c-25.31,0-50.79,10.27-70.88,26.71l22.64,28.58C454.36,549.26,471.08,542.2,487.67,542.2z"/>
				<linearGradient id="SVGID_54_" gradientUnits="userSpaceOnUse" x1="440.5987" y1="625.3586" x2="243.1804" y2="746.7894">
					<stop  offset="0" style="stop-color:#FE7062"/>
					<stop  offset="1" style="stop-color:#FF928E"/>
				</linearGradient>
				<path class="st58" d="M418.63,606.47c0-17.65,9.25-34.17,22.9-46.04l-22.64-28.58c-23.36,19.11-39.43,46.55-39.43,75.97
					c0,54.03,54.19,94.43,108.23,95.44l-1.74-37.06C452.27,665.37,418.63,640.15,418.63,606.47z"/>
				<linearGradient id="SVGID_55_" gradientUnits="userSpaceOnUse" x1="505.083" y1="631.3138" x2="562.446" y2="724.4355">
					<stop  offset="0" style="stop-color:#E1473D"/>
					<stop  offset="1" style="stop-color:#E9605A"/>
				</linearGradient>
				<path class="st59" d="M487.67,666.24c-0.57,0-1.14-0.03-1.71-0.04l1.74,37.06c0.69,0.01,1.38,0.05,2.08,0.05
					c38.43,0,71.73-21.9,88.16-53.89c-9.48-4.28-23.55-10.4-35.72-15.66C531.72,653.1,511.23,666.24,487.67,666.24z"/>
				<linearGradient id="SVGID_56_" gradientUnits="userSpaceOnUse" x1="610.4019" y1="600.462" x2="750.4565" y2="613.8715">
					<stop  offset="0" style="stop-color:#E1473D"/>
					<stop  offset="1" style="stop-color:#E9605A"/>
				</linearGradient>
				<path class="st60" d="M568.76,544.41l-25.56,32.19c4.14,8.32,6.49,17.69,6.49,27.61c0,10.7-2.71,20.76-7.48,29.54
					c12.17,5.26,26.24,11.38,35.72,15.66c6.96-13.56,10.92-28.91,10.92-45.2C588.86,581.75,581.37,561.03,568.76,544.41z"/>
			</g>
			<g>
				<linearGradient id="SVGID_57_" gradientUnits="userSpaceOnUse" x1="766.3979" y1="661.5394" x2="775.3986" y2="997.5732">
					<stop  offset="0" style="stop-color:#FE7062"/>
					<stop  offset="1" style="stop-color:#FF928E"/>
				</linearGradient>
				<path class="st61" d="M770.44,542.2c13.24,0,25.49,4.16,35.56,11.22l19.98-32.62c-15.42-9.9-33.76-15.67-53.45-15.67
					c-26.17,0-52.53,10.99-72.92,28.42l23.71,27.71C736.28,549.61,753.42,542.2,770.44,542.2z"/>
				<linearGradient id="SVGID_58_" gradientUnits="userSpaceOnUse" x1="1258.1494" y1="150.9409" x2="934.1169" y2="471.973">
					<stop  offset="0" style="stop-color:#E1473D"/>
					<stop  offset="1" style="stop-color:#E9605A"/>
				</linearGradient>
				<path class="st62" d="M832.35,600.66l38.6-7.8c-3.46-30.26-20.54-56.36-44.97-72.05L806,553.42
					C821.08,564,831.24,581.11,832.35,600.66z"/>
				<linearGradient id="SVGID_59_" gradientUnits="userSpaceOnUse" x1="-178.5214" y1="628.7111" x2="318.3767" y2="619.0264">
					<stop  offset="0" style="stop-color:#FE7062"/>
					<stop  offset="1" style="stop-color:#FF928E"/>
				</linearGradient>
				<path class="st63" d="M701.39,606.47c0-17.24,8.82-33.4,21.94-45.2l-23.71-27.71c-22.24,19.02-37.39,45.71-37.39,74.26
					c0,35.46,23.35,65.03,54.66,81.48l19.37-31.47C716.33,647.6,701.39,628.91,701.39,606.47z"/>
				<linearGradient id="SVGID_60_" gradientUnits="userSpaceOnUse" x1="827.6865" y1="745.7484" x2="917.6955" y2="1024.7761">
					<stop  offset="0" style="stop-color:#FE7062"/>
					<stop  offset="1" style="stop-color:#FF928E"/>
				</linearGradient>
				<path class="st64" d="M832.35,600.66c0.07,1.18,0.11,2.37,0.11,3.56c0,34.25-27.77,62.02-62.02,62.02
					c-11.81,0-23.69-3.04-34.18-8.42l-19.37,31.47c17.02,8.94,36.38,14.01,55.65,14.01c54.72,0,99.08-44.36,99.08-99.08
					c0-3.85-0.24-7.63-0.67-11.37L832.35,600.66z"/>
			</g>
		</g>
		<g>
			<path class="st31" d="M227.3,520.61c1.25,0,2.51-0.46,3.49-1.39l68.96-65.32c6-5.68,13.85-8.81,22.11-8.81H556.6
				c2.81,0,5.08-2.27,5.08-5.08c0-2.81-2.27-5.08-5.08-5.08H321.87c-10.87,0-21.2,4.12-29.1,11.59l-68.96,65.32
				c-2.04,1.93-2.12,5.14-0.19,7.18C224.61,520.08,225.96,520.61,227.3,520.61z"/>
			<path class="st31" d="M357.91,413.59H556.6c2.81,0,5.08-2.27,5.08-5.08c0-2.81-2.27-5.08-5.08-5.08H357.91
				c-2.81,0-5.08,2.27-5.08,5.08C352.83,411.31,355.11,413.59,357.91,413.59z"/>
			<path class="st31" d="M390.24,382.09H556.6c2.81,0,5.08-2.27,5.08-5.08c0-2.81-2.27-5.08-5.08-5.08H390.24
				c-2.81,0-5.08,2.27-5.08,5.08C385.16,379.81,387.43,382.09,390.24,382.09z"/>
		</g>
		<g>
			<g>
				<path class="st31" d="M1736.89,322.61l11.4-0.34c1.25-0.04,2.3,0.95,2.33,2.2c0.04,1.25-0.95,2.3-2.2,2.33l-0.04,0l-11.29,0.34
					l-0.07,0c-1.25,0.04-2.3-0.95-2.34-2.2C1734.65,323.7,1735.63,322.65,1736.89,322.61L1736.89,322.61z"/>
				<path class="st31" d="M1759.67,322.11l11.38-0.04c1.25,0,2.26,1,2.27,2.25c0,1.25-1,2.26-2.25,2.27h-0.02l-11.33,0.05h-0.02
					c-1.25,0.01-2.27-1-2.27-2.25S1758.42,322.11,1759.67,322.11L1759.67,322.11z"/>
				<path class="st31" d="M1782.43,322.15l11.38,0.18c1.24,0.02,2.23,1.04,2.21,2.29c-0.02,1.24-1.04,2.23-2.29,2.21h-0.02
					l-11.34-0.17l-0.02,0c-1.24-0.02-2.24-1.04-2.22-2.29C1780.16,323.12,1781.18,322.13,1782.43,322.15L1782.43,322.15z"/>
				<path class="st31" d="M1805.18,322.62l11.37,0.39c1.24,0.04,2.2,1.08,2.16,2.32c-0.04,1.24-1.08,2.2-2.32,2.16l-0.02,0
					l-11.33-0.38l-0.02,0c-1.24-0.04-2.21-1.08-2.17-2.32C1802.9,323.55,1803.94,322.58,1805.18,322.62L1805.18,322.62z"/>
				<path class="st31" d="M1827.92,323.51l11.36,0.6c1.23,0.06,2.18,1.12,2.11,2.35c-0.07,1.23-1.12,2.18-2.35,2.11l-0.02,0
					l-11.32-0.59l-0.02,0c-1.23-0.06-2.18-1.12-2.12-2.35C1825.64,324.39,1826.69,323.44,1827.92,323.51L1827.92,323.51z"/>
				<path class="st31" d="M1850.65,324.81l11.35,0.82c1.22,0.09,2.15,1.15,2.06,2.38c-0.09,1.22-1.15,2.14-2.38,2.06l-0.02,0
					l-11.31-0.8l-0.02,0c-1.23-0.09-2.15-1.15-2.06-2.38C1848.35,325.65,1849.42,324.73,1850.65,324.81L1850.65,324.81z"/>
				<path class="st31" d="M1873.34,326.56l11.34,1.04c1.22,0.11,2.11,1.19,2,2.41c-0.11,1.22-1.19,2.11-2.41,2l-0.02,0l-11.29-1.03
					l-0.02,0c-1.22-0.11-2.12-1.19-2.01-2.41C1871.04,327.34,1872.12,326.44,1873.34,326.56L1873.34,326.56z"/>
				<path class="st31" d="M1896,328.76l11.31,1.28c1.21,0.14,2.08,1.23,1.94,2.44c-0.14,1.21-1.23,2.08-2.44,1.94l-0.02,0
					l-11.27-1.27l-0.02,0c-1.21-0.14-2.08-1.23-1.95-2.44C1893.69,329.49,1894.78,328.62,1896,328.76L1896,328.76z"/>
				<path class="st31" d="M1918.61,331.45l11.28,1.54c1.2,0.16,2.04,1.27,1.88,2.47c-0.16,1.2-1.27,2.04-2.47,1.88l-0.02,0
					l-11.23-1.53l-0.03,0c-1.2-0.16-2.05-1.27-1.88-2.47C1916.3,332.12,1917.41,331.28,1918.61,331.45L1918.61,331.45z"/>
				<path class="st31" d="M1941.16,334.67l11.24,1.83c1.19,0.19,2,1.32,1.81,2.51c-0.19,1.19-1.32,2-2.51,1.81l-0.03,0l-11.19-1.81
					l-0.03,0c-1.19-0.19-2.01-1.32-1.81-2.51C1938.84,335.29,1939.97,334.47,1941.16,334.67L1941.16,334.67z"/>
				<path class="st31" d="M1963.63,338.47l11.19,2.14c1.18,0.23,1.95,1.36,1.73,2.55c-0.23,1.18-1.37,1.95-2.55,1.73l-0.03-0.01
					l-11.13-2.12l-0.03-0.01c-1.18-0.22-1.96-1.37-1.73-2.55C1961.3,339.02,1962.44,338.24,1963.63,338.47L1963.63,338.47z"/>
				<path class="st31" d="M1985.98,342.92l11.13,2.49c1.17,0.26,1.9,1.42,1.64,2.59c-0.26,1.17-1.42,1.9-2.59,1.64l-0.03-0.01
					l-11.06-2.46l-0.03-0.01c-1.17-0.26-1.91-1.42-1.65-2.59C1983.65,343.39,1984.81,342.65,1985.98,342.92L1985.98,342.92z"/>
				<path class="st31" d="M2008.19,348.08l11.04,2.88c1.15,0.3,1.84,1.48,1.54,2.63c-0.3,1.15-1.48,1.84-2.63,1.54l-0.04-0.01
					l-10.96-2.85l-0.04-0.01c-1.16-0.3-1.85-1.48-1.55-2.64C2005.85,348.47,2007.03,347.78,2008.19,348.08L2008.19,348.08z"/>
				<path class="st31" d="M2030.21,354.06l10.92,3.33c1.13,0.35,1.77,1.55,1.43,2.68c-0.35,1.14-1.55,1.77-2.68,1.43l-0.04-0.01
					l-10.83-3.29l-0.04-0.01c-1.14-0.35-1.78-1.55-1.43-2.69C2027.86,354.35,2029.07,353.71,2030.21,354.06L2030.21,354.06z"/>
				<path class="st31" d="M2051.96,360.96l10.76,3.84c1.11,0.4,1.69,1.62,1.29,2.73c-0.4,1.11-1.62,1.69-2.73,1.3l-0.05-0.02
					l-10.66-3.79l-0.05-0.02c-1.12-0.4-1.7-1.62-1.3-2.74C2049.62,361.14,2050.85,360.56,2051.96,360.96L2051.96,360.96z"/>
				<path class="st31" d="M2073.37,368.93l10.53,4.43c1.08,0.46,1.59,1.7,1.14,2.79c-0.46,1.08-1.71,1.59-2.79,1.14l-0.06-0.02
					l-10.42-4.38l-0.06-0.03c-1.09-0.46-1.6-1.71-1.14-2.79C2071.03,368.98,2072.28,368.47,2073.37,368.93L2073.37,368.93z"/>
				<path class="st31" d="M2094.3,378.13l10.23,5.13c1.05,0.52,1.47,1.8,0.95,2.85c-0.52,1.05-1.8,1.47-2.85,0.94l-0.07-0.03
					l-10.09-5.05l-0.07-0.03c-1.05-0.52-1.47-1.8-0.95-2.85C2091.97,378.03,2093.25,377.6,2094.3,378.13L2094.3,378.13z"/>
				<path class="st31" d="M2114.56,388.78l9.8,5.94c1,0.6,1.32,1.9,0.71,2.9c-0.6,1-1.9,1.32-2.9,0.71l-0.08-0.05l-9.64-5.83
					l-0.08-0.05c-1-0.6-1.32-1.91-0.72-2.91C2112.26,388.49,2113.56,388.17,2114.56,388.78L2114.56,388.78z"/>
				<path class="st31" d="M2133.92,400.94l9.43,6.42c0.96,0.65,1.21,1.96,0.55,2.92c-0.65,0.96-1.96,1.21-2.92,0.55l-0.04-0.02
					l-9.36-6.36l-0.04-0.03c-0.96-0.65-1.21-1.96-0.56-2.93C2131.64,400.53,2132.95,400.28,2133.92,400.94L2133.92,400.94z"/>
				<path class="st31" d="M2152.64,413.99l9.12,6.87c0.92,0.69,1.11,2.01,0.41,2.93c-0.7,0.92-2.01,1.11-2.93,0.41l-0.04-0.03
					l-9.04-6.79l-0.04-0.03c-0.93-0.7-1.11-2.01-0.42-2.94C2150.39,413.48,2151.71,413.3,2152.64,413.99L2152.64,413.99z"/>
				<path class="st31" d="M2170.7,427.98l8.72,7.39c0.88,0.74,0.99,2.06,0.24,2.94c-0.74,0.88-2.06,0.99-2.94,0.24l-0.05-0.04
					l-8.63-7.3l-0.05-0.04c-0.88-0.74-0.99-2.06-0.25-2.94C2168.5,427.34,2169.81,427.23,2170.7,427.98L2170.7,427.98z"/>
				<path class="st31" d="M2187.89,443.05l8.18,8.01c0.82,0.8,0.83,2.11,0.03,2.93c-0.8,0.82-2.11,0.83-2.93,0.03l-0.06-0.06
					l-8.07-7.89l-0.06-0.06c-0.82-0.8-0.84-2.12-0.03-2.94C2185.75,442.27,2187.07,442.25,2187.89,443.05L2187.89,443.05z"/>
				<path class="st31" d="M2203.9,459.43l7.42,8.75c0.74,0.87,0.63,2.17-0.24,2.91c-0.87,0.74-2.17,0.63-2.91-0.24l-0.07-0.08
					l-7.29-8.58l-0.07-0.08c-0.74-0.87-0.63-2.18,0.24-2.92C2201.85,458.45,2203.16,458.56,2203.9,459.43L2203.9,459.43z"/>
				<path class="st31" d="M2218.26,477.33l6.34,9.6c0.63,0.95,0.36,2.22-0.58,2.85c-0.95,0.63-2.22,0.37-2.85-0.58l-0.08-0.12
					l-6.2-9.36l-0.08-0.12c-0.63-0.95-0.37-2.23,0.58-2.85C2216.35,476.12,2217.63,476.38,2218.26,477.33L2218.26,477.33z"/>
				<path class="st31" d="M2230.23,496.98l4.77,10.51c0.47,1.03,0.01,2.24-1.02,2.71c-1.03,0.47-2.24,0.01-2.71-1.02l-0.08-0.17
					l-4.63-10.17l-0.07-0.16c-0.47-1.03-0.01-2.25,1.02-2.71C2228.54,495.5,2229.76,495.95,2230.23,496.98L2230.23,496.98z"/>
				<path class="st31" d="M2238.76,518.43c1.07,3.71,1.94,7.48,2.59,11.29c0.19,1.11-0.56,2.16-1.67,2.35
					c-1.11,0.19-2.16-0.55-2.35-1.66c-0.63-3.65-1.47-7.28-2.5-10.85c-0.31-1.08,0.31-2.21,1.4-2.53
					C2237.32,516.72,2238.45,517.34,2238.76,518.43L2238.76,518.43z"/>
				<path class="st31" d="M2242.62,541.24c0.2,3.86,0.16,7.74-0.12,11.6c-0.08,1.12-1.05,1.96-2.17,1.88
					c-1.12-0.08-1.96-1.05-1.88-2.17c0.26-3.7,0.3-7.41,0.11-11.11c-0.06-1.12,0.8-2.08,1.93-2.13S2242.57,540.11,2242.62,541.24
					L2242.62,541.24z"/>
				<path class="st31" d="M2240.98,564.34c-0.74,3.8-1.69,7.55-2.85,11.23c-0.33,1.06-1.47,1.65-2.53,1.32
					c-1.06-0.33-1.65-1.47-1.32-2.53c1.11-3.54,2.03-7.15,2.73-10.79c0.21-1.1,1.27-1.81,2.37-1.6
					C2240.48,562.18,2241.19,563.24,2240.98,564.34L2240.98,564.34z"/>
				<path class="st31" d="M2234.08,586.4l-5.08,10.36c-0.49,1-1.69,1.41-2.69,0.92c-1-0.49-1.41-1.69-0.92-2.69l0.08-0.16
					l4.91-10.03l0.08-0.17c0.49-1,1.69-1.41,2.69-0.92C2234.16,584.19,2234.57,585.4,2234.08,586.4L2234.08,586.4z"/>
				<path class="st31" d="M2223.05,606.63l-6.68,9.37c-0.64,0.9-1.89,1.11-2.79,0.47c-0.9-0.64-1.11-1.89-0.47-2.79l0.08-0.11
					l6.5-9.14l0.08-0.12c0.64-0.9,1.89-1.11,2.79-0.47C2223.48,604.47,2223.69,605.72,2223.05,606.63L2223.05,606.63z"/>
				<path class="st31" d="M2209.1,624.88l-7.76,8.44c-0.74,0.81-2,0.86-2.81,0.12c-0.81-0.74-0.86-2-0.12-2.81l0.07-0.08l7.61-8.29
					l0.07-0.08c0.75-0.81,2.01-0.87,2.82-0.12C2209.8,622.8,2209.85,624.07,2209.1,624.88L2209.1,624.88z"/>
				<path class="st31" d="M2193.17,641.35l-8.51,7.65c-0.81,0.73-2.07,0.66-2.8-0.15c-0.73-0.81-0.67-2.07,0.15-2.8l0.06-0.05
					l8.38-7.54l0.06-0.06c0.81-0.73,2.07-0.67,2.8,0.15C2194.05,639.36,2193.99,640.61,2193.17,641.35L2193.17,641.35z"/>
				<path class="st31" d="M2175.87,656.3l-8.91,7.05l-0.01,0.01c-0.85,0.68-2.09,0.53-2.77-0.32c-0.68-0.85-0.53-2.09,0.32-2.77
					l8.9-7.06l0.02-0.01c0.86-0.68,2.1-0.53,2.78,0.32C2176.87,654.38,2176.72,655.62,2175.87,656.3L2175.87,656.3z"/>
				<path class="st31" d="M2158.14,670.5l-8.69,7.28l-0.03,0.02c-0.83,0.7-2.07,0.59-2.77-0.24c-0.7-0.83-0.59-2.07,0.24-2.76
					l8.74-7.33c0.83-0.7,2.07-0.59,2.77,0.24c0.7,0.83,0.59,2.07-0.24,2.77l0,0L2158.14,670.5z"/>
				<path class="st31" d="M2140.9,685.22l-8.36,7.63l-0.04,0.03c-0.8,0.73-2.03,0.67-2.76-0.13c-0.73-0.8-0.67-2.03,0.13-2.76
					l8.43-7.7c0.8-0.73,2.04-0.67,2.77,0.12c0.73,0.8,0.67,2.04-0.12,2.77l0,0L2140.9,685.22z"/>
				<path class="st31" d="M2124.4,700.7l-7.84,8.13l-0.06,0.06c-0.75,0.77-1.98,0.8-2.75,0.05c-0.77-0.75-0.8-1.98-0.05-2.75
					l7.94-8.25c0.75-0.78,1.98-0.8,2.76-0.05c0.78,0.75,0.8,1.98,0.05,2.76l0,0L2124.4,700.7z"/>
				<path class="st31" d="M2109.12,717.3l-6.91,8.87l-0.08,0.11c-0.66,0.84-1.87,0.99-2.72,0.34c-0.84-0.66-0.99-1.87-0.34-2.71
					l7.06-9.08c0.66-0.85,1.88-1,2.72-0.34c0.85,0.66,1,1.88,0.34,2.72l0,0L2109.12,717.3z"/>
				<path class="st31" d="M2096.04,735.51c-1.9,3.2-3.64,6.49-5.14,9.87c-0.43,0.97-1.57,1.41-2.54,0.98
					c-0.97-0.43-1.41-1.57-0.98-2.54c1.57-3.54,3.37-6.97,5.34-10.29c0.54-0.92,1.73-1.22,2.65-0.67
					C2096.29,733.4,2096.59,734.59,2096.04,735.51L2096.04,735.51z"/>
				<path class="st31" d="M2087.17,755.8c-0.97,3.55-1.63,7.17-1.97,10.83c-0.1,1.05-1.03,1.83-2.08,1.74
					c-1.05-0.1-1.83-1.03-1.74-2.08c0.35-3.89,1.05-7.74,2.07-11.49c0.28-1.02,1.33-1.63,2.36-1.35
					C2086.84,753.71,2087.45,754.77,2087.17,755.8L2087.17,755.8z"/>
				<path class="st31" d="M2085.18,777.64c0.31,3.67,0.91,7.33,1.75,10.94c0.24,1.03-0.4,2.05-1.43,2.29
					c-1.03,0.24-2.05-0.4-2.29-1.43c-0.88-3.77-1.52-7.6-1.85-11.48c-0.09-1.05,0.69-1.98,1.75-2.07
					C2084.16,775.81,2085.09,776.59,2085.18,777.64L2085.18,777.64z"/>
				<path class="st31" d="M2090.06,799.29l4.07,10.46l0.04,0.11c0.38,0.98-0.1,2.08-1.08,2.46c-0.98,0.38-2.08-0.1-2.46-1.08
					l-4.17-10.7c-0.38-0.98,0.1-2.08,1.08-2.46c0.98-0.38,2.08,0.1,2.46,1.08l0,0L2090.06,799.29z"/>
				<path class="st31" d="M2098.79,820.03l4.99,10.16l0.02,0.03c0.46,0.94,0.07,2.07-0.86,2.53c-0.94,0.46-2.07,0.07-2.53-0.86
					l-5.03-10.23c-0.46-0.94-0.08-2.07,0.86-2.54c0.94-0.46,2.07-0.08,2.54,0.86l0,0L2098.79,820.03z"/>
				<path class="st31" d="M2108.9,840.38l4.39,10.66c0.4,0.96-0.06,2.06-1.02,2.45c-0.96,0.4-2.06-0.06-2.45-1.02l-0.06-0.15
					l-4.27-10.34l-0.07-0.17c-0.4-0.96,0.06-2.06,1.02-2.46C2107.4,838.96,2108.5,839.42,2108.9,840.38L2108.9,840.38z"/>
				<path class="st31" d="M2116.82,861.97l2.81,11.12c0.25,1-0.35,2.02-1.36,2.27c-1,0.25-2.02-0.35-2.27-1.36l-0.03-0.11
					l-2.76-10.9l-0.03-0.11c-0.25-1,0.35-2.02,1.36-2.28C2115.54,860.36,2116.56,860.96,2116.82,861.97L2116.82,861.97z"/>
				<path class="st31" d="M2121.78,884.35l1.53,11.36c0.14,1.02-0.58,1.96-1.6,2.09c-1.02,0.14-1.96-0.58-2.09-1.6l-0.01-0.1
					l-1.51-11.16l-0.01-0.1c-0.14-1.02,0.58-1.96,1.6-2.1C2120.7,882.61,2121.64,883.33,2121.78,884.35L2121.78,884.35z"/>
				<path class="st31" d="M2124.23,907.12l0.31,11.45c0.03,1.02-0.78,1.87-1.8,1.9c-1.02,0.03-1.87-0.78-1.9-1.8l0-0.1l-0.32-11.25
					l0-0.1c-0.03-1.03,0.78-1.88,1.8-1.91C2123.34,905.29,2124.2,906.1,2124.23,907.12L2124.23,907.12z"/>
				<path class="st31" d="M2124.25,930.03l-0.9,11.42c-0.08,1.01-0.97,1.77-1.98,1.69c-1.01-0.08-1.77-0.97-1.69-1.98l0.01-0.1
					l0.88-11.23l0.01-0.1c0.08-1.02,0.97-1.78,1.99-1.7C2123.57,928.12,2124.33,929.01,2124.25,930.03L2124.25,930.03z"/>
				<path class="st31" d="M2121.83,952.8l-2.13,11.26c-0.19,0.99-1.15,1.65-2.14,1.46c-0.99-0.19-1.65-1.15-1.46-2.14l0.02-0.1
					l2.08-11.06l0.02-0.1c0.19-1,1.15-1.65,2.15-1.47C2121.36,950.84,2122.01,951.8,2121.83,952.8L2121.83,952.8z"/>
				<path class="st31" d="M2116.95,975.18l-3.35,10.96c-0.29,0.96-1.31,1.51-2.28,1.21c-0.96-0.29-1.51-1.32-1.21-2.28l0.03-0.09
					l3.28-10.77l0.03-0.1c0.29-0.97,1.32-1.51,2.28-1.22C2116.7,973.19,2117.25,974.22,2116.95,975.18L2116.95,975.18z"/>
				<path class="st31" d="M2109.65,996.9l-4.54,10.52c-0.4,0.92-1.46,1.35-2.39,0.95c-0.92-0.4-1.35-1.46-0.95-2.39l0.04-0.09
					l4.45-10.34l0.04-0.09c0.4-0.92,1.47-1.35,2.39-0.95C2109.62,994.9,2110.05,995.97,2109.65,996.9L2109.65,996.9z"/>
				<path class="st31" d="M2100.01,1017.68l-5.64,9.97c-0.49,0.87-1.59,1.17-2.46,0.68c-0.87-0.49-1.17-1.59-0.68-2.46l0.05-0.08
					l5.54-9.81l0.05-0.08c0.49-0.87,1.6-1.18,2.47-0.69C2100.2,1015.7,2100.51,1016.81,2100.01,1017.68L2100.01,1017.68z"/>
				<path class="st31" d="M2088.21,1037.3l-6.64,9.32c-0.58,0.81-1.7,1-2.51,0.42c-0.81-0.58-1-1.7-0.42-2.51l0.05-0.07l6.53-9.18
					l0.05-0.07c0.58-0.81,1.7-1,2.51-0.42S2088.79,1036.49,2088.21,1037.3L2088.21,1037.3z"/>
				<path class="st31" d="M2074.47,1055.6l-7.52,8.63c-0.65,0.74-1.78,0.82-2.52,0.17c-0.74-0.65-0.82-1.78-0.17-2.52l0.05-0.06
					l7.4-8.51l0.06-0.06c0.65-0.75,1.78-0.83,2.53-0.18C2075.05,1053.72,2075.12,1054.85,2074.47,1055.6L2074.47,1055.6z"/>
				<path class="st31" d="M2059.05,1072.49l-8.26,7.91c-0.71,0.68-1.84,0.65-2.51-0.05c-0.68-0.71-0.65-1.84,0.05-2.51l0.05-0.05
					l8.14-7.81l0.06-0.05c0.71-0.68,1.84-0.66,2.52,0.05C2059.78,1070.68,2059.76,1071.81,2059.05,1072.49L2059.05,1072.49z"/>
				<path class="st31" d="M2042.2,1087.95l-8.87,7.2c-0.76,0.62-1.87,0.5-2.49-0.26c-0.62-0.76-0.5-1.87,0.26-2.49l0.05-0.04
					l8.76-7.12l0.05-0.04c0.76-0.62,1.88-0.5,2.5,0.26C2043.08,1086.22,2042.96,1087.34,2042.2,1087.95L2042.2,1087.95z"/>
				<path class="st31" d="M2024.19,1102l-9.38,6.52c-0.8,0.55-1.9,0.36-2.45-0.44c-0.55-0.8-0.36-1.9,0.44-2.45l0.05-0.03l9.27-6.45
					l0.05-0.04c0.8-0.56,1.9-0.36,2.46,0.44C2025.19,1100.35,2024.99,1101.45,2024.19,1102L2024.19,1102z"/>
				<path class="st31" d="M2005.22,1114.71l-9.79,5.88c-0.83,0.5-1.9,0.23-2.4-0.6c-0.5-0.83-0.23-1.9,0.6-2.4l0.05-0.03l9.69-5.83
					l0.05-0.03c0.83-0.5,1.91-0.23,2.41,0.6C2006.32,1113.13,2006.05,1114.21,2005.22,1114.71L2005.22,1114.71z"/>
				<path class="st31" d="M1985.47,1126.17l-10.11,5.28c-0.85,0.45-1.9,0.12-2.35-0.74c-0.45-0.85-0.12-1.9,0.74-2.35l0.04-0.02
					l10.02-5.24l0.04-0.02c0.85-0.45,1.91-0.12,2.36,0.74C1986.66,1124.66,1986.33,1125.72,1985.47,1126.17L1985.47,1126.17z"/>
				<path class="st31" d="M1965.12,1136.45l-10.37,4.74c-0.87,0.4-1.9,0.01-2.3-0.86c-0.4-0.87-0.01-1.9,0.86-2.3l0.04-0.02
					l10.29-4.71l0.04-0.02c0.87-0.4,1.9-0.02,2.3,0.86C1966.37,1135.02,1965.99,1136.05,1965.12,1136.45L1965.12,1136.45z"/>
				<path class="st31" d="M1944.26,1145.67l-10.58,4.24c-0.88,0.35-1.89-0.08-2.24-0.96c-0.35-0.88,0.08-1.89,0.96-2.24l0.03-0.01
					l10.51-4.22l0.04-0.02c0.89-0.36,1.89,0.07,2.25,0.96C1945.57,1144.31,1945.14,1145.32,1944.26,1145.67L1944.26,1145.67z"/>
				<path class="st31" d="M1923,1153.91l-10.75,3.78c-0.89,0.31-1.87-0.16-2.19-1.05c-0.31-0.89,0.16-1.87,1.05-2.19l0.03-0.01
					l10.68-3.77l0.03-0.01c0.9-0.32,1.88,0.15,2.19,1.05S1923.9,1153.6,1923,1153.91L1923,1153.91z"/>
			</g>
			<g>
				<polygon class="st31" points="1697.07,293.12 1703.1,329.89 1675.6,318.16 				"/>
				<path class="st30" d="M1528.26,299.12l113.58,70.82c2.17,1.36,4.81,1.77,7.29,1.14c2.49-0.63,4.61-2.24,5.88-4.46l66.81-116.72
					c0.77-1.34,0.64-3-0.31-4.21c-0.95-1.21-2.54-1.72-4.02-1.3L1528.26,299.12z"/>
				<polygon class="st31" points="1697.06,293.12 1528.26,299.12 1686.34,311.99 1688.44,322.12 				"/>
				<polygon class="st31" points="1679.89,323.13 1703.1,329.89 1686.34,311.99 				"/>
			</g>
		</g>
		<g>
			<g>
				<rect x="1974.31" y="1290.56" class="st31" width="17.67" height="191.09"/>
				<path class="st31" d="M2060.53,1485.34h-154.76v-8.81c0-1.49,1.2-2.69,2.69-2.69h149.17c1.6,0,2.9,1.3,2.9,2.9V1485.34z"/>
				
					<linearGradient id="SVGID_61_" gradientUnits="userSpaceOnUse" x1="13060.5176" y1="1481.9219" x2="13101.1064" y2="1226.6069" gradientTransform="matrix(1 0 0 1 -11107.1113 0)">
					<stop  offset="0" style="stop-color:#FE7062"/>
					<stop  offset="1" style="stop-color:#FF928E"/>
				</linearGradient>
				<path class="st65" d="M2089.8,1283.51c0,11.11-9.09,20.2-20.2,20.2H1903.2c-11.11,0-20.2-9.09-20.2-20.2v-18.26
					c0-11.11,9.09-20.2,20.2-20.2h166.41c11.11,0,20.2,9.09,20.2,20.2V1283.51z"/>
			</g>
			<g>
				<linearGradient id="SVGID_62_" gradientUnits="userSpaceOnUse" x1="1897.3018" y1="1576.3301" x2="1960.2987" y2="1855.3159">
					<stop  offset="0" style="stop-color:#09005D"/>
					<stop  offset="1" style="stop-color:#1A0F91"/>
				</linearGradient>
				<path class="st66" d="M1884.73,1447.8c0,0-50.46,36.37-41.7,60.8c0,0,55.21-23.82,61.88-42.58c6.67-18.76-1.13-27.05-1.13-27.05
					L1884.73,1447.8z"/>
				
					<linearGradient id="SVGID_63_" gradientUnits="userSpaceOnUse" x1="-568.5236" y1="1435.5568" x2="-537.4497" y2="1435.5568" gradientTransform="matrix(-1 0 0 1 1332.5151 0)">
					<stop  offset="0" style="stop-color:#FF928E"/>
					<stop  offset="1" style="stop-color:#FEB3B1"/>
				</linearGradient>
				<path class="st67" d="M1892.31,1417.32l8.25,23.85c1.24,3.6,0,7.7-3.22,9.73c-1.61,1.02-3.82,1.96-6.83,2.64
					c-4.25,0.96-8.64-1-10.68-4.85l-9.87-18.58L1892.31,1417.32z"/>
				
					<linearGradient id="SVGID_64_" gradientUnits="userSpaceOnUse" x1="-611.524" y1="1353.3373" x2="-479.4745" y2="1168.2599" gradientTransform="matrix(-1 0 0 1 1332.5151 0)">
					<stop  offset="0" style="stop-color:#09005D"/>
					<stop  offset="1" style="stop-color:#1A0F91"/>
				</linearGradient>
				<path class="st68" d="M1972.6,1202.63c0,0-103.64,17.96-148.1,59.03c-44.46,41.07,40.81,172.07,40.81,172.07
					s13.97-0.09,30.9-14.6c0,0-50.55-98.53-6.99-127.26c48.98-32.3,105.43-39.58,105.43-39.58l-21.05-46.5L1972.6,1202.63z"/>
				<linearGradient id="SVGID_65_" gradientUnits="userSpaceOnUse" x1="1872.8174" y1="1291.6251" x2="1874.3174" y2="1492.6146">
					<stop  offset="0" style="stop-color:#09005D"/>
					<stop  offset="1" style="stop-color:#1A0F91"/>
				</linearGradient>
				<path class="st69" d="M1851.8,1495.09c11.1-5.14,42.52-27.13,47.81-28.1c5.3-0.97,14.48,5.25,14.48,5.25s2.23,4.02-0.16,11.03
					c-7.37,8.92-23.75,25.93-45.76,32.27c-16.19,4.66-27.52,0.32-34.57-4.77C1837.49,1504.87,1844.41,1498.51,1851.8,1495.09z"/>
				
					<linearGradient id="SVGID_66_" gradientUnits="userSpaceOnUse" x1="-581.4269" y1="1503.7947" x2="-497.871" y2="1503.7947" gradientTransform="matrix(-1 0 0 1 1332.5151 0)">
					<stop  offset="0" style="stop-color:#4042E2"/>
					<stop  offset="1" style="stop-color:#4F52FF"/>
				</linearGradient>
				<path class="st70" d="M1868.18,1515.55c22.01-6.34,38.39-23.35,45.76-32.27c-1.62,4.74-5.34,10.84-13.3,17.99
					c-19.74,17.74-57.43,24.13-65.46,22.9c-6.43-0.99-5.83-6.92-1.58-13.39C1840.66,1515.86,1851.99,1520.21,1868.18,1515.55z"/>
				
					<linearGradient id="SVGID_67_" gradientUnits="userSpaceOnUse" x1="-590.9936" y1="1464.2332" x2="-561.8301" y2="1464.2332" gradientTransform="matrix(-1 0 0 1 1332.5151 0)">
					<stop  offset="0" style="stop-color:#FF928E"/>
					<stop  offset="1" style="stop-color:#FEB3B1"/>
				</linearGradient>
				<path class="st71" d="M1923.51,1456.72c-0.12,3.06-6.37,13.54-10.03,19.43c-1.74,2.8-4.78,4.5-8.07,4.51
					c-2.09,0.01-4.49-0.18-6.67-0.8c-3.27-0.94-5.11-4.42-4.15-7.69l7.14-24.37L1923.51,1456.72z"/>
				
					<linearGradient id="SVGID_68_" gradientUnits="userSpaceOnUse" x1="-659.1199" y1="1445.5637" x2="-651.8416" y2="1198.1002" gradientTransform="matrix(-1 0 0 1 1332.5151 0)">
					<stop  offset="0" style="stop-color:#09005D"/>
					<stop  offset="1" style="stop-color:#1A0F91"/>
				</linearGradient>
				<path class="st72" d="M2072.37,1171.53c0,0,23.02,61.54,0,80.26c-23.02,18.72-77.92,39.79-90.19,77.07
					c-12.27,37.28-33.08,109.73-60.94,135.38c0,0-19.57-1.9-26.9-9.69c0,0,15.86-108.15,26.33-135.9
					c9.06-24.03,22.41-58.72,48-78.11c7.32-5.55,6.05-14.34,2.65-22.88l-6.18-15.55L2072.37,1171.53z"/>
				
					<linearGradient id="SVGID_69_" gradientUnits="userSpaceOnUse" x1="-478.709" y1="1204.8961" x2="-550.4526" y2="1092.6021" gradientTransform="matrix(-1 0 0 1 1332.5151 0)">
					<stop  offset="0" style="stop-color:#4042E2"/>
					<stop  offset="1" style="stop-color:#4F52FF"/>
				</linearGradient>
				<path class="st73" d="M1832.32,1123.29c38.59,2.33,26.57-59.33,25.87-61.78l58.57,41.37c0,0-3.1,32.97-51.8,50.27
					c-12.32,4.38-23.58,4.57-33.54,2.43C1835.67,1143.19,1834.81,1132.09,1832.32,1123.29z"/>
				
					<linearGradient id="SVGID_70_" gradientUnits="userSpaceOnUse" x1="-501.882" y1="1127.9308" x2="-400.1498" y2="1127.9308" gradientTransform="matrix(-1 0 0 1 1332.5151 0)">
					<stop  offset="0" style="stop-color:#FF928E"/>
					<stop  offset="1" style="stop-color:#FEB3B1"/>
				</linearGradient>
				<path class="st74" d="M1757.7,1104.73c14.38-10,30.67,0,30.67,0c19.23,12.58,33.45,17.92,43.95,18.56
					c2.49,8.8,3.35,19.91-0.89,32.29c-21.54-4.63-36.95-20.22-43.65-28.22c-2.41-2.88-6.68-3.38-9.63-1.05
					c-2.99,2.36-5.9,5.6-5.38,9.01c1.04,6.72-6.76,8.86-7.35,6.42c-0.59-2.44,2.67-16.89,2.67-16.89s-15.6,15.68-21.68,21.71
					c-6.09,6.03-13.74,0-13.74,0S1743.32,1114.74,1757.7,1104.73z"/>
				
					<linearGradient id="SVGID_71_" gradientUnits="userSpaceOnUse" x1="-548.803" y1="1006.0977" x2="-777.5505" y2="1172.4597" gradientTransform="matrix(-1 0 0 1 1332.5151 0)">
					<stop  offset="0" style="stop-color:#4042E2"/>
					<stop  offset="1" style="stop-color:#4F52FF"/>
				</linearGradient>
				<path class="st75" d="M2012.27,966.29c0,0-56.14-22.48-160.63,63.78c0,0-8.73,18.07,0.79,34.14
					c9.52,16.08,100.24,94.43,112.71,137.88c0,0,54.05,17.56,109.94-24.08C2075.08,1178.02,2070.15,1057.09,2012.27,966.29z"/>
				
					<linearGradient id="SVGID_72_" gradientUnits="userSpaceOnUse" x1="-598.9494" y1="977.7931" x2="-531.4514" y2="977.7931" gradientTransform="matrix(-1 0 0 1 1332.5151 0)">
					<stop  offset="0" style="stop-color:#FF928E"/>
					<stop  offset="1" style="stop-color:#FEB3B1"/>
				</linearGradient>
				<path class="st76" d="M1901.28,946.23l27.64,33.51c2.74,3.33,3.35,7.95,1.45,11.83c-3.84,7.83-12.94,19.22-33.13,17.64
					c-6.01-0.47-11.32-4.09-13.95-9.51l-19.33-39.95L1901.28,946.23z"/>
				
					<linearGradient id="SVGID_73_" gradientUnits="userSpaceOnUse" x1="-581.6069" y1="960.9919" x2="-810.355" y2="1127.3542" gradientTransform="matrix(-1 0 0 1 1332.5151 0)">
					<stop  offset="0" style="stop-color:#4042E2"/>
					<stop  offset="1" style="stop-color:#4F52FF"/>
				</linearGradient>
				<path class="st77" d="M2055.73,1109.79c6.52-26.54-59.5-85.72-59.5-85.72l16.03-57.78c0,0,142.56,94.9,106.23,171.22
					c-5.21,10.94-12.12,18.6-20.14,23.73C2086.87,1130.34,2068.58,1116.17,2055.73,1109.79z"/>
				
					<linearGradient id="SVGID_74_" gradientUnits="userSpaceOnUse" x1="-745.6705" y1="1064.4967" x2="-546.0361" y2="1053.0592" gradientTransform="matrix(-1 0 0 1 1332.5151 0)">
					<stop  offset="0" style="stop-color:#09005D"/>
					<stop  offset="1" style="stop-color:#1A0F91"/>
				</linearGradient>
				<path class="st78" d="M2055.78,1105.93c0.7,0,1.34-0.48,1.51-1.19c6.67-27.14-57.25-84.81-59.98-87.25
					c-0.64-0.57-1.62-0.52-2.2,0.12c-0.57,0.64-0.52,1.63,0.12,2.2c0.65,0.58,65.25,58.85,59.03,84.19
					c-0.21,0.84,0.31,1.68,1.14,1.89C2055.53,1105.91,2055.66,1105.93,2055.78,1105.93z"/>
				<linearGradient id="SVGID_75_" gradientUnits="userSpaceOnUse" x1="2123.8337" y1="1038.6193" x2="1948.3423" y2="1188.6119">
					<stop  offset="0" style="stop-color:#FF928E"/>
					<stop  offset="1" style="stop-color:#FEB3B1"/>
				</linearGradient>
				<path class="st79" d="M1955.74,1107.51c0,0,78.27,30.39,97.38,7.53c1.3-1.55,2.14-3.32,2.61-5.25
					c12.84,6.38,31.14,20.55,42.62,51.45c-41.17,26.31-111.53-14.63-130.56-26.7c-3.13-1.99-6.88-2.68-10.51-1.93
					c-7.34,1.52-20.02,3.76-26.85,2.71c-10-1.54-24.37,33.74-40.58,22.86C1889.84,1158.17,1903.72,1096.84,1955.74,1107.51z"/>
				<g>
					<linearGradient id="SVGID_76_" gradientUnits="userSpaceOnUse" x1="1992.2977" y1="881.4657" x2="1861.8038" y2="930.9634">
						<stop  offset="0" style="stop-color:#FF928E"/>
						<stop  offset="1" style="stop-color:#FEB3B1"/>
					</linearGradient>
					<path class="st80" d="M1841.14,897.02c-0.28,1.08,6.48,74.32,6.48,74.32l41.74-4.75l3.91-70.37
						C1893.26,896.22,1845.79,878.98,1841.14,897.02z"/>
					
						<linearGradient id="SVGID_77_" gradientUnits="userSpaceOnUse" x1="-260.3229" y1="-779.0524" x2="-159.5299" y2="-779.0524" gradientTransform="matrix(-0.9683 -0.2499 -0.2499 0.9683 1465.9618 1633.1084)">
						<stop  offset="0" style="stop-color:#09005D"/>
						<stop  offset="1" style="stop-color:#1A0F91"/>
					</linearGradient>
					<path class="st81" d="M1882.39,910.8l0.84,37.21c0.01,0.48-0.04,0.94-0.16,1.4c-0.73,2.83-3.94,12.38-13.51,8.5
						c-8.69-3.52-16.66-6.61-22.53-5.5c-2.63,0.5-4.46,2.91-4.21,5.58c0.62,6.65,2.28,21.62,5.71,34.41c0.7,2.59,3.28,4.2,5.92,3.73
						c7.97-1.4,24.7-4.84,37.51-10.75c1.74-0.8,2.9-2.47,3.03-4.37c0.63-9.3,2.63-37.56,4.41-45.35
						c1.67-7.31,11.24-10.75,15.36-11.91c1.35-0.38,2.48-1.29,3.14-2.53c2.33-4.38,6.02-14.71-6.87-20.52
						c-2.7-1.22-3.84-4.39-2.54-7.05c2.58-5.29,4.34-13.61-5.49-19.37c-9.99-5.86-18.45-1.12-23.19,2.96
						c-1.91,1.65-4.69,1.63-6.67,0.05c-1.13-0.9-2.66-1.32-4.67-0.35c-2.71,1.3-5.95-0.14-6.97-2.98
						c-1.95-5.44-6.47-11.53-16.95-10.9c-18.59,1.12-22.88,21.12-19.37,33.5c3.51,12.38,23.6,10.02,34.09,5.12
						c7.97-3.72,17.14,2.1,21.08,5.11C1881.62,907.76,1882.36,909.23,1882.39,910.8z"/>
					
						<linearGradient id="SVGID_78_" gradientUnits="userSpaceOnUse" x1="-319.4626" y1="-717.5784" x2="-251.7835" y2="-787.0153" gradientTransform="matrix(-0.9683 -0.2499 -0.2499 0.9683 1465.9618 1633.1084)">
						<stop  offset="0" style="stop-color:#FF928E"/>
						<stop  offset="1" style="stop-color:#FEB3B1"/>
					</linearGradient>
					<path class="st82" d="M1899.58,949.22c0,0-5.2-21.83,3.08-26.13c8.27-4.3,19.4-0.38,15.21,14.57
						C1912.66,956.24,1899.58,949.22,1899.58,949.22z"/>
				</g>
			</g>
			<g>
				
					<linearGradient id="SVGID_79_" gradientUnits="userSpaceOnUse" x1="12965.9473" y1="1853.3407" x2="12833.627" y2="1889.6061" gradientTransform="matrix(0.9988 -0.0494 0.0494 0.9988 -11098.4395 -86.798)">
					<stop  offset="0" style="stop-color:#09005D"/>
					<stop  offset="1" style="stop-color:#1A0F91"/>
				</linearGradient>
				<path class="st83" d="M1915.64,1167.44c-0.13,0.01-0.25,0.01-0.38,0.01l-164.23-0.18c-4.06,0-7.35-3.3-7.34-7.36
					c0-4.06,3.31-7.42,7.36-7.34l164.23,0.18c4.06,0,7.35,3.3,7.34,7.36C1922.62,1164.04,1919.52,1167.24,1915.64,1167.44z"/>
				
					<linearGradient id="SVGID_80_" gradientUnits="userSpaceOnUse" x1="12871.5264" y1="1038.3212" x2="12777.6387" y2="1137.5538" gradientTransform="matrix(1 0 0 1 -11107.1113 0)">
					<stop  offset="0" style="stop-color:#09005D"/>
					<stop  offset="1" style="stop-color:#1A0F91"/>
				</linearGradient>
				<path class="st84" d="M1603.4,1018.33h136.77c10.09,0,19.27,5.82,23.58,14.95l63.23,134.07h-169.97
					c-6.5,0-12.34-3.97-14.73-10.02l-49.03-124.07C1590.41,1026.1,1595.69,1018.33,1603.4,1018.33z"/>
			</g>
			<g>
				<g>
					<linearGradient id="SVGID_81_" gradientUnits="userSpaceOnUse" x1="1618.6732" y1="1350.1208" x2="1777.2169" y2="1350.1208">
						<stop  offset="0" style="stop-color:#FE7062"/>
						<stop  offset="1" style="stop-color:#FF928E"/>
					</linearGradient>
					<path class="st85" d="M1625.57,1519.68c-0.91,0-1.83-0.18-2.72-0.55c-3.5-1.46-5.12-5.39-3.61-8.78l144.74-325.74
						c1.51-3.39,5.56-4.95,9.07-3.5c3.5,1.46,5.12,5.39,3.61,8.78l-144.74,325.74C1630.79,1518.16,1628.25,1519.68,1625.57,1519.68z
						"/>
					<linearGradient id="SVGID_82_" gradientUnits="userSpaceOnUse" x1="1636.9821" y1="1350.1202" x2="1795.5258" y2="1350.1202">
						<stop  offset="0" style="stop-color:#FE7062"/>
						<stop  offset="1" style="stop-color:#FF928E"/>
					</linearGradient>
					<path class="st86" d="M1788.63,1519.68c-2.67,0-5.22-1.51-6.34-4.04l-144.74-325.74c-1.51-3.39,0.11-7.32,3.61-8.78
						c3.5-1.46,7.56,0.11,9.07,3.5l144.74,325.74c1.51,3.39-0.11,7.32-3.61,8.78C1790.46,1519.5,1789.54,1519.68,1788.63,1519.68z"
						/>
					<linearGradient id="SVGID_83_" gradientUnits="userSpaceOnUse" x1="2066.6982" y1="1350.1208" x2="2225.2422" y2="1350.1208">
						<stop  offset="0" style="stop-color:#FE7062"/>
						<stop  offset="1" style="stop-color:#FF928E"/>
					</linearGradient>
					<path class="st87" d="M2073.6,1519.68c-0.91,0-1.83-0.18-2.72-0.55c-3.5-1.46-5.12-5.39-3.61-8.78L2212,1184.61
						c1.51-3.39,5.56-4.95,9.07-3.5c3.5,1.46,5.12,5.39,3.61,8.78l-144.74,325.74C2078.82,1518.16,2076.27,1519.68,2073.6,1519.68z"
						/>
					<linearGradient id="SVGID_84_" gradientUnits="userSpaceOnUse" x1="2085.0061" y1="1350.1202" x2="2243.5498" y2="1350.1202">
						<stop  offset="0" style="stop-color:#FE7062"/>
						<stop  offset="1" style="stop-color:#FF928E"/>
					</linearGradient>
					<path class="st88" d="M2236.65,1519.68c-2.67,0-5.22-1.51-6.34-4.04l-144.74-325.74c-1.51-3.39,0.11-7.32,3.61-8.78
						c3.5-1.46,7.56,0.11,9.07,3.5l144.74,325.74c1.51,3.39-0.11,7.32-3.61,8.78C2238.49,1519.5,2237.56,1519.68,2236.65,1519.68z"
						/>
				</g>
				<linearGradient id="SVGID_85_" gradientUnits="userSpaceOnUse" x1="1581.2886" y1="1183.7218" x2="2253.7456" y2="1183.7218">
					<stop  offset="0" style="stop-color:#FE7062"/>
					<stop  offset="1" style="stop-color:#FF928E"/>
				</linearGradient>
				<path class="st89" d="M2253.63,1174.55c0.37-2.14-0.13-4.35-1.37-6.02c-1.24-1.68-3.08-2.65-5.02-2.65h-658.45
					c-2.56,0-4.94,1.46-6.31,3.87c-1.38,2.41-1.56,5.44-0.49,8.04l7.14,17.29c1.63,3.96,5.17,6.49,9.07,6.49h644.53
					c3.62,0,6.74-2.88,7.43-6.86L2253.63,1174.55z"/>
			</g>
		</g>
		<g>
			<linearGradient id="SVGID_86_" gradientUnits="userSpaceOnUse" x1="257.4362" y1="1414.6838" x2="562.6697" y2="1150.5396">
				<stop  offset="0" style="stop-color:#09005D"/>
				<stop  offset="1" style="stop-color:#1A0F91"/>
			</linearGradient>
			<path class="st90" d="M463.43,1268.33l-288.11,159.81c-12.08,6.7-15.9,22.28-8.28,33.8l1.25,1.89
				c6.74,10.2,20.5,12.96,30.65,6.15l275.1-184.46L463.43,1268.33z"/>
			<linearGradient id="SVGID_87_" gradientUnits="userSpaceOnUse" x1="440.5622" y1="1179.0803" x2="746.1302" y2="1179.0803">
				<stop  offset="0" style="stop-color:#DAE3FE"/>
				<stop  offset="1" style="stop-color:#E9EFFD"/>
			</linearGradient>
			<path class="st91" d="M744.29,1155.13c12.99,81.86-44.06,158.94-127.42,172.17c-83.36,13.23-161.47-42.41-174.46-124.27
				c-12.99-81.86,44.06-158.94,127.42-172.17C653.19,1017.63,731.3,1073.27,744.29,1155.13z"/>
			
				<linearGradient id="SVGID_88_" gradientUnits="userSpaceOnUse" x1="1390.4941" y1="1405.8894" x2="1730.6252" y2="1405.8894" gradientTransform="matrix(0.9876 -0.1567 0.1567 0.9876 -1168.1654 35.1637)">
				<stop  offset="0" style="stop-color:#09005D"/>
				<stop  offset="1" style="stop-color:#1A0F91"/>
			</linearGradient>
			<path class="st92" d="M567.17,1014.15c-92.76,14.72-156.24,100.49-141.78,191.58c14.45,91.09,101.37,152.99,194.13,138.27
				c92.76-14.72,156.24-100.49,141.78-191.58C746.85,1061.34,659.93,999.43,567.17,1014.15z M615.67,1319.78
				c-79.13,12.56-153.28-40.26-165.61-117.96c-12.33-77.71,41.82-150.88,120.96-163.44c79.13-12.56,153.28,40.26,165.61,117.96
				C748.96,1234.05,694.81,1307.22,615.67,1319.78z"/>
			<g>
				<path class="st1" d="M441.22,1224.15c-0.49,0-0.95-0.32-1.09-0.82c-1.12-3.82-2.1-7.75-2.92-11.66
					c-0.13-0.61,0.26-1.22,0.88-1.34c0.61-0.14,1.22,0.27,1.35,0.88c0.81,3.86,1.78,7.72,2.88,11.49c0.18,0.6-0.17,1.23-0.77,1.41
					C441.44,1224.13,441.33,1224.15,441.22,1224.15z M435.06,1177.85c-0.01,0-0.02,0-0.02,0c-0.63-0.01-1.13-0.53-1.11-1.16
					c0.22-10.91,1.61-21.82,4.14-32.45c0,0,0,0,0,0c14.89-62.57,66.21-109.62,130.73-119.86c30.09-4.77,60.67-1.06,88.42,10.75
					c0.58,0.25,0.85,0.91,0.6,1.49c-0.25,0.58-0.91,0.85-1.49,0.6c-27.36-11.64-57.51-15.31-87.18-10.6
					c-63.61,10.09-114.2,56.47-128.88,118.15c0,0,0,0,0,0c-2.49,10.47-3.86,21.22-4.08,31.96
					C436.18,1177.35,435.67,1177.85,435.06,1177.85z"/>
			</g>
			<path class="st1" d="M187.55,1467.38c-0.07,0-0.13-0.01-0.2-0.02c-12.6-2.23-16.49-8.85-17.54-14
				c-1.53-7.53,2.11-15.33,9.08-19.4l34.44-20.14c0.54-0.31,1.24-0.14,1.55,0.41c0.32,0.54,0.13,1.24-0.41,1.55l-34.44,20.14
				c-6.12,3.58-9.34,10.41-8,16.99c1.32,6.49,6.61,10.6,15.71,12.22c0.62,0.11,1.03,0.7,0.92,1.32
				C188.57,1466.99,188.09,1467.38,187.55,1467.38z"/>
			<path class="st1" d="M224.52,1409.73c-0.39,0-0.77-0.2-0.98-0.56c-0.32-0.54-0.13-1.24,0.41-1.55l4.46-2.61
				c0.54-0.32,1.24-0.14,1.55,0.41c0.32,0.54,0.13,1.24-0.41,1.55l-4.46,2.61C224.91,1409.68,224.71,1409.73,224.52,1409.73z"/>
		</g>
	</g>
</g>
</svg>
